<?xml version="1.0" encoding="UTF-8"?><!--Created with Inkscape (http://www.inkscape.org/)--><svg width="141.9mm" height="125.88mm" version="1.1" viewBox="0 0 141.9 125.88" xml:space="preserve" xmlns="http://www.w3.org/2000/svg"><g transform="translate(-31.527 -59.553)"><g transform="matrix(1 0 0 1.2713 0 -16.159)" stroke-width=".88689"><path d="m104.31 158.56c-0.26021-0.0898-0.33073-3.9407-0.33073-18.06 0-16.623 0.0356-18.06 0.48227-19.491 0.945-3.0273-0.77972-1.2226 29.813-31.194 7.276-7.1284 14.104-13.791 15.173-14.807 1.0693-1.0153 2.1321-2.2033 2.3618-2.6398 0.23994-0.45598 0.49397-1.8634 0.59698-3.3073 0.21061-2.9523 0.87171-4.5101 2.6762-6.3059 1.5003-1.4931 2.8908-2.2893 4.8944-2.8026 2.0495-0.52508 3.5287-0.52665 5.5286-0.0059 3.0774 0.80135 5.7757 2.9964 7.1454 5.8128 0.69167 1.4222 0.76954 1.8486 0.772 4.2276 3e-3 2.45-0.061 2.7766-0.85791 4.4121-0.61625 1.2647-1.3563 2.2204-2.6059 3.3655-2.2521 2.0636-3.8576 2.6939-7.3232 2.8747-2.5944 0.13542-2.5944 0.13542-5.5562 3.0879-1.629 1.6239-10.254 10.14-19.167 18.924-8.9128 8.7842-16.573 16.544-17.022 17.244-1.2508 1.9493-1.8537 3.8029-2.2264 6.8453-0.18717 1.528-0.34954 2.3019-0.36083 1.7198-0.0496-2.5571 0.48106-5.021 1.5478-7.1865 1.0525-2.1366 1.2692-2.363 20.521-21.431 19.457-19.272 19.457-19.272 22.025-19.442 1.4123-0.09379 2.932-0.28729 3.3771-0.43001 7.3869-2.3688 9.8857-11.209 4.7272-16.724-4.0835-4.3656-11.139-4.4385-15.318-0.15832-1.7835 1.8268-2.5216 3.658-2.5216 6.256 0 1.0179-0.16213 2.2387-0.36029 2.7129-0.22525 0.5391-6.8942 7.2498-17.793 17.905-28.063 27.435-28.236 27.61-29.256 29.767-0.87648 1.8521-0.87648 1.8521-0.95144 19.961-0.0412 9.9597-0.0136 18.269 0.0614 18.464 0.11115 0.28965 0.28852 0.27665 0.95945-0.0703 0.4527-0.2341 0.87006-0.37866 0.92747-0.32125 0.18406 0.18406-1.5962 0.91697-1.9395 0.79846zm-5.9957-0.29644c-0.07694-0.1245 0.15415-0.17015 0.51355-0.10144 0.65345 0.12491 0.65345 0.12491 0.67205-18.758 0.01023-10.385 0.09952-19.087 0.19844-19.336 0.19713-0.49728 0.11849 37.555-0.07872 38.091-0.13754 0.37378-1.0917 0.45006-1.3053 0.10436zm-3.2913-2.021c-2.7599-1.7284-5.3539-3.7528-6.7485-5.2667-1.0181-1.1051-2.2932-3.81-2.2577-4.7891 0.02471-0.68142 0.0595-0.63856 0.24583 0.30294 0.6035 3.0493 3.5783 6.2751 8.734 9.471 2.4954 1.5469 3.1456 2.0058 2.8311 1.9984-0.03638-8.5e-4 -1.2985-0.77332-2.8047-1.7166zm12.5 0.86201c0.27553-0.18397 1.5835-1.0353 2.9066-1.8919 3.264-2.1132 5.3411-3.9588 6.5559-5.8258 0.55917-0.85931 1.0167-1.453 1.0167-1.3194 0 0.59535-1.9592 3.0621-3.4861 4.3891-1.8132 1.5759-5.0852 3.839-6.5681 4.5429-0.50932 0.24177-0.70061 0.28905-0.42507 0.10508zm10.795-10.918c5e-3 -0.43656 0.0647-0.58312 0.13177-0.32569 0.0671 0.25743 0.0627 0.61462-0.01 0.79375-0.0725 0.17913-0.12736-0.0315-0.12197-0.46806zm0.32679-7.0115c0-3.4197 0.0377-4.8187 0.0838-3.1088s0.0461 4.5078 0 6.2177-0.0838 0.31088-0.0838-3.1089zm-32.618-1.0583c-0.16406-11.972-0.21243-13.071-0.65519-14.885-0.95573-3.9171-2.71-6.1973-10.547-13.709-17.917-17.174-30.171-29.085-29.92-29.085 0.06533 0 3.829 3.6057 8.3638 8.0126s12.293 11.829 17.241 16.493c4.9477 4.6643 9.3873 8.9465 9.8656 9.516 0.4784 0.56955 1.4178 1.6834 2.0876 2.4752s1.6264 2.3001 2.1259 3.3519c1.4784 3.1131 1.6816 5.0452 1.5974 15.19-0.06803 8.2013-0.07979 8.397-0.15869 2.6402zm32.291-6.2177c5e-3 -0.43656 0.0647-0.58312 0.13177-0.32569 0.0671 0.25743 0.0627 0.61462-0.01 0.79375-0.0725 0.17913-0.12736-0.0315-0.12197-0.46806zm-18.036-13.436c-0.0214-0.62854 1.4597-2.9147 2.8088-4.3353 1.4089-1.4837 16.558-16.322 36.935-36.176 4.3159-4.2052 7.9153-7.8234 7.9986-8.0405 0.23997-0.62535-9.2965-0.28318-12.163 0.43642-5.2702 1.3228-5.5474 1.5316-19.049 14.342-19.436 18.441-21 19.835-22.824 20.341-1.4252 0.3958-4.2553 0.34064-5.7702-0.11245-2.6551-0.7941-5.2543-2.6318-8.9285-6.3127-3.9777-3.985-15.499-15.295-21.676-21.278-2.2904-2.2185-4.0996-4.0337-4.0204-4.0337 0.15826 0 12.831 12.242 22.605 21.837 3.4197 3.3571 6.6344 6.4035 7.1438 6.7699 4.0474 2.9117 8.0991 3.8134 11.239 2.5014 1.5893-0.66404 2.9689-1.8885 15.273-13.555 17.376-16.476 18.809-17.76 21.265-19.056 3.42-1.8052 8.3611-2.7299 14.586-2.7299 2.0356 0 2.5051 0.07603 2.6399 0.4275 0.19011 0.49542-4.0505 4.7434-27.697 27.745-18.98 18.463-18.464 17.937-19.506 19.861-0.46907 0.86641-0.85602 1.482-0.8599 1.3681zm-10.375-17.833c0.191-0.0764 0.4192-0.067 0.50712 0.0209 0.08792 0.0879-0.06835 0.15045-0.34727 0.13896-0.30822-0.0127-0.37092-0.0754-0.15985-0.15985zm1.8521 0c0.191-0.0764 0.4192-0.067 0.50712 0.0209 0.08792 0.0879-0.06835 0.15045-0.34726 0.13896-0.30822-0.0127-0.37092-0.0754-0.15985-0.15985zm0.86541-0.1803c0.06063-0.053 0.4079-0.23821 0.7717-0.41147 0.62369-0.29703 0.63214-0.29152 0.14787 0.0965-0.42148 0.33767-1.2827 0.63269-0.91957 0.31501zm3.7483-2.892c1.2733-1.2329 2.3151-2.4226 2.3151-2.6438 0-0.36952-3.7062-3.9726-11.761-11.433-1.7281-1.6007-3.4613-3.1485-3.8516-3.4396-0.39031-0.29104-2.2462-1.9971-4.1243-3.7913-3.8164-3.6459-5.8317-4.8548-9.7646-5.8574-1.6108-0.41064-1.8066-0.50245-0.81935-0.38411 1.8191 0.21805 4.7011 1.2379 6.4292 2.2751 2.2491 1.3498 24.159 21.913 24.152 22.668-0.0021 0.23966-1.1035 1.4286-2.4474 2.642l-2.4435 2.2063zm-9.6249 1.4671c-0.32911-0.41964-0.31975-0.429 0.0999-0.0999 0.25466 0.19972 0.46302 0.40808 0.46302 0.46302 0 0.21776-0.21727 0.0776-0.56292-0.36313zm-4.4676-4.2333-3.833-3.9026 3.9026 3.833c2.1464 2.1082 3.9026 3.8643 3.9026 3.9026 0 0.18935-0.41139-0.20762-3.9722-3.833zm-7.6732-7.4083-3.5682-3.638 3.638 3.5682c2.0009 1.9625 3.638 3.5996 3.638 3.638 0 0.18969-0.39322-0.18871-3.7078-3.5682zm1.0832-1.9426c-0.49765-0.30338-2.1392-1.7019-3.6478-3.1079-2.743-2.5563-2.743-2.5563-2.087-3.1257 0.36078-0.31321 1.1689-0.65548 1.7957-0.7606s1.7276-0.47394 2.4461-0.81959c0.71846-0.34565 1.4465-0.62846 1.618-0.62846 0.17142 0 0.62336-0.24517 1.0043-0.54483 0.43513-0.34227 0.82853-0.46523 1.0582-0.33073 0.81752 0.47887 4.1414 3.751 4.1414 4.0769 0 0.36313-0.28787 0.69806-2.7082 3.1509-0.79097 0.80159-1.581 1.7243-1.7555 2.0505-0.39283 0.73401-0.71466 0.74082-1.8651 0.0395zm-8.2273-4.9365-3.3033-3.3734 3.3734 3.3033c1.8554 1.8168 3.3734 3.3349 3.3734 3.3734 0 0.19009-0.37511-0.16974-3.4436-3.3033zm-25.997 0.0075c0.4697-0.05845 1.3031-0.05941 1.8521-0.0021 0.54895 0.05728 0.16465 0.1051-0.854 0.10627-1.0186 0.0012-1.4678-0.04569-0.99809-0.10414zm-1.8296-0.25439c0.191-0.07643 0.4192-0.06703 0.50712 0.02089 0.08792 0.08792-0.06835 0.15045-0.34726 0.13896-0.30822-0.0127-0.37092-0.07539-0.15985-0.15985zm-2.3978-0.76434c-1.0258-0.55653-0.90966-0.74859 0.13229-0.21868 0.99735 0.50722 1.1739 0.63869 0.83785 0.62401-0.1334-0.0058-0.56996-0.18822-0.97014-0.40532zm-2.7286-2.0315c-0.7771-0.8599-0.7771-0.8599 0.08279-0.08279 0.80154 0.72437 0.98151 0.94269 0.77711 0.94269-0.04554 0-0.43249-0.38695-0.8599-0.8599zm25.81-3.8365-3.5682-3.638 3.638 3.5682c2.0009 1.9625 3.638 3.5996 3.638 3.638 0 0.1897-0.39322-0.18871-3.7078-3.5682zm-27.018 2.3812c-0.32911-0.41964-0.31975-0.429 0.09989-0.09989 0.25466 0.19972 0.46302 0.40808 0.46302 0.46302 0 0.21776-0.21727 0.0776-0.56292-0.36313zm19.605-3.5196c-0.15984-0.29867-0.25333-0.72292-0.20775-0.94279 0.04558-0.21986 0.21394 0.0245 0.37413 0.54303 0.32739 1.0598 0.26591 1.2075-0.16638 0.39976zm-21.382-0.77988c0-0.3638 0.06005-0.51263 0.13345-0.33073 0.0734 0.1819 0.0734 0.47956 0 0.66146-0.0734 0.1819-0.13345 0.03307-0.13345-0.33073zm25.288-2.1495c0.17948-0.18082 0.39297-0.26212 0.47443-0.18065 0.08146 0.08146-0.06538 0.22941-0.32632 0.32877-0.37708 0.14358-0.40748 0.11319-0.14811-0.14811zm4.7008 0.03283c-3.4396-0.15655-3.4396-0.15655-0.26458-0.18739 1.7462-0.01696 3.7703 0.06188 4.4979 0.17521 1.2185 0.18979 1.2394 0.20458 0.26458 0.18739-0.58208-0.01027-2.6061-0.08911-4.4979-0.17521zm-29.979-0.92604c0.0054-0.43656 0.06469-0.58312 0.13177-0.32569 0.06708 0.25743 0.06267 0.61462-0.0098 0.79375-0.07248 0.17913-0.12736-0.03149-0.12197-0.46806zm20.881-1.0822c-0.05289-0.95307-1.55-3.6387-2.5983-4.6609-0.55234-0.53863-1.6591-1.3399-2.4595-1.7805s-1.3361-0.80219-1.1906-0.80346c0.62112-0.0054 3.0097 1.6175 4.064 2.7613 1.2571 1.3638 2.5258 3.8477 2.3361 4.5736-0.09774 0.37401-0.1269 0.3567-0.15169-0.09004zm-8.5179-2.8758c-5.6849-1.7863-6.2255-2.2309-3.8159-3.1381 2.5-0.94122 6.1881-0.16892 8.0408 1.6838 0.79892 0.79892 1.3519 1.7753 1.3519 2.3868 0 0.51113-2.1 0.16-5.5768-0.93249zm4.2539-0.91762c0-0.3528-1.3015-1.326-2.3711-1.7729-1.187-0.49604-3.8542-0.77872-4.0689-0.43126-0.09322 0.15083 1.1103 0.72353 2.8077 1.336 3.1693 1.1436 3.6323 1.2543 3.6323 0.86818zm107.69 1.1985c0-0.66396 1.64-2.329 2.799-2.8417 1.3587-0.60102 3.854-0.9101 4.4871-0.5558 0.41214 0.23064 0.28412 0.37627-0.9578 1.0895-1.3607 0.78147-4.4461 2.145-5.733 2.5337-0.4366 0.13185-0.59531 0.07167-0.59531-0.22572zm-122.81-0.32182c0.35837-0.6983 2.6388-2.9681 3.3496-3.3341 0.29104-0.14984 0.02815 0.16388-0.5842 0.69714-0.61235 0.53326-1.5497 1.4706-2.0829 2.0829-0.53326 0.61235-0.84038 0.86166-0.6825 0.55401zm4.2051-3.8391c0.17948-0.18082 0.39297-0.26212 0.47443-0.18065 0.08146 0.08146-0.06538 0.22941-0.32632 0.32877-0.37708 0.14358-0.40747 0.11319-0.14811-0.14811zm1.1289-0.49634c0.21828-0.14106 0.57547-0.24994 0.79375-0.24194 0.26169 0.0096 0.21662 0.092-0.13229 0.24194-0.72736 0.31256-1.1451 0.31256-0.66146 0zm5.9531-0.26458c-0.72024-0.18327-0.73249-0.20315-0.13229-0.21468 0.3638-7e-3 0.89958 0.08962 1.1906 0.21468 0.6524 0.28035 0.04341 0.28035-1.0583 0zm-4.2995-0.18238c0.25466-0.06655 0.67138-0.06655 0.92604 0 0.25466 0.06655 0.0463 0.121-0.46302 0.121-0.50932 0-0.71768-0.05445-0.46302-0.121zm1.9875-0.26933c0.32912-0.06329 0.80537-0.06088 1.0583 0.0053 0.25296 0.06622-0.01631 0.118-0.5984 0.11507-0.58208-0.0029-0.78905-0.05712-0.45994-0.12041z" fill="#b2c8d9"/><path d="m91.777 153.79c-0.32911-0.41964-0.31975-0.429 0.09989-0.0999 0.25466 0.19972 0.46302 0.40808 0.46302 0.46302 0 0.21776-0.21727 0.0776-0.56292-0.36313zm20.936-0.16604c0-0.0549 0.20836-0.2633 0.46302-0.46302 0.41964-0.32911 0.429-0.31975 0.0999 0.0999-0.34564 0.44073-0.56291 0.58089-0.56291 0.36313zm-22.523-1.1569c-0.32911-0.41964-0.31975-0.429 0.0999-0.0999 0.25466 0.19972 0.46302 0.40808 0.46302 0.46302 0 0.21776-0.21727 0.0776-0.56292-0.36313zm25.169-1.2568c0.49366-0.50932 0.95709-0.92604 1.0298-0.92604 0.0728 0-0.27161 0.41672-0.76526 0.92604-0.49366 0.50933-0.95709 0.92605-1.0298 0.92605-0.0728 0 0.27161-0.41672 0.76526-0.92605zm-29.317-6.35c0.0054-0.43656 0.06469-0.58312 0.13177-0.32569 0.06708 0.25743 0.06267 0.61462-0.0098 0.79375-0.07248 0.17913-0.12736-0.0315-0.12197-0.46806zm32.342-5.8208c-1.6e-4 -3.638 0.0371-5.163 0.0828-3.3888s0.0458 4.7507 2.9e-4 6.6146c-0.0455 1.8639-0.0829 0.41228-0.0831-3.2257zm-0.048-8.7312c3e-3 -0.58208 0.0571-0.78905 0.12041-0.45994 0.0633 0.32912 0.0609 0.80537-5e-3 1.0583-0.0662 0.25296-0.118-0.0163-0.11507-0.5984zm-19.018-5.8208c5.97e-4 -1.6007 0.04417-2.2215 0.09684-1.3794 0.05266 0.84205 0.05218 2.1517-0.0011 2.9104-0.05326 0.75867-0.09635 0.0697-0.09575-1.531zm24.507-8.4667c1.2305-1.2369 2.2968-2.249 2.3696-2.249 0.0728 0-0.87449 1.012-2.105 2.249s-2.2968 2.249-2.3696 2.249c-0.0728 0 0.87449-1.012 2.105-2.249zm-42.102 0.19844c-0.32911-0.41965-0.31975-0.429 0.0999-0.0999 0.25466 0.19972 0.46302 0.40808 0.46302 0.46302 0 0.21777-0.21727 0.0776-0.56292-0.36312zm-1.2892-1.7612c-0.50932-0.57145-4.8849-4.7787-9.7234-9.3494s-8.7974-8.3702-8.7974-8.4434c0-0.07316 1.8376 1.6028 4.0834 3.7243 2.2459 2.1215 4.1939 3.8573 4.3289 3.8573 0.13502 0 0.19249-0.27722 0.12772-0.61604-0.08753-0.45787 0.10871-0.80138 0.76429-1.3379 1.4244-1.1657 3.4574-2.5224 4.4539-2.9723 0.50932-0.22994 1.13-0.59926 1.3792-0.82069 0.24924-0.22144 0.6362-0.33238 0.8599-0.24654 0.88148 0.33825 0.27365-0.41713-2.9667-3.6869-1.8554-1.8722-2.5995-2.6993-1.6536-1.838 0.94589 0.86135 3.4637 3.319 5.595 5.4614 4.0794 4.1006 6.5776 5.9001 9.3358 6.7251 1.6285 0.48704 4.7115 0.4859 6.0815-2e-3 1.0363-0.36926 1.0363-0.36926 0.39688 0.24548-7.1086 6.834-9.2359 8.5168-11.78 9.3189-0.77287 0.24363-1.4398 0.57279-1.4821 0.73147-0.04229 0.15868-0.49361-0.17904-1.0029-0.7505zm-0.79375-15.074c0-0.05494-0.20836-0.2633-0.46302-0.46302-0.41964-0.32911-0.429-0.31975-0.09989 0.0999 0.34564 0.44073 0.56292 0.58089 0.56292 0.36313zm23.283 14.552c0-0.0549 0.20835-0.2633 0.46302-0.46302 0.41964-0.32911 0.429-0.31975 0.0999 0.0999-0.34564 0.44072-0.56291 0.58088-0.56291 0.36312zm24.606-1.6199c0.34177-0.3638 0.68093-0.66145 0.75369-0.66145 0.0728 0-0.14734 0.29765-0.48911 0.66145-0.34178 0.36381-0.68094 0.66146-0.7537 0.66146-0.0728 0 0.14734-0.29765 0.48912-0.66146zm-19.447-3.3073c1.3036-1.3097 2.4298-2.3812 2.5025-2.3812 0.0728 0-0.93431 1.0716-2.2379 2.3812-1.3036 1.3097-2.4297 2.3812-2.5025 2.3812-0.0728 0 0.93431-1.0716 2.2379-2.3812zm5.9531 0.92604c0.49365-0.50932 0.95708-0.92604 1.0298-0.92604 0.0728 0-0.27161 0.41672-0.76526 0.92604-0.49366 0.50933-0.95709 0.92605-1.0298 0.92605-0.0728 0 0.27161-0.41672 0.76527-0.92605zm1.3229-1.2734c0-0.0455 0.38695-0.43249 0.8599-0.8599 0.85989-0.7771 0.85989-0.7771 0.0828 0.0828-0.72437 0.80155-0.94269 0.98152-0.94269 0.77711zm-19.844-4.2504c0-0.0549 0.20836-0.2633 0.46302-0.46302 0.41964-0.32911 0.429-0.31975 0.0999 0.0999-0.34564 0.44072-0.56292 0.58088-0.56292 0.36312zm3.4396-2.9428c0.34178-0.3638 0.68094-0.66146 0.7537-0.66146 0.07276 0-0.14734 0.29766-0.48912 0.66146-0.34178 0.3638-0.68094 0.66146-0.7537 0.66146-0.07276 0 0.14734-0.29766 0.48912-0.66146zm-8.2682-0.83669c0.1819-0.0734 0.47956-0.0734 0.66146 0s0.03307 0.13345-0.33073 0.13345c-0.3638 0-0.51263-0.0601-0.33073-0.13345zm3.2411-0.96589c0-0.04554 0.38695-0.43249 0.8599-0.8599 0.8599-0.7771 0.8599-0.7771 0.08279 0.08279-0.72437 0.80154-0.94269 0.98151-0.94269 0.77711zm24.606-0.78373c0-0.04002 0.92274-0.96276 2.0505-2.0505l2.0505-1.9778-1.9778 2.0505c-1.8369 1.9045-2.1233 2.1712-2.1233 1.9778zm-34.534-2.6392-2.3757-2.4474 2.4474 2.3757c1.3461 1.3067 2.4474 2.408 2.4474 2.4474 0 0.1921-0.31253-0.10265-2.5191-2.3757zm58.611 1.3063c0-0.04553 0.38696-0.43249 0.8599-0.8599 0.8599-0.7771 0.8599-0.7771 0.0828 0.08279-0.72437 0.80154-0.94269 0.98151-0.94269 0.7771zm-84.142-4.0844-3.0384-3.1089 3.1089 3.0384c2.8877 2.8222 3.2289 3.1793 3.0384 3.1793-0.03875 0-1.4377-1.399-3.1089-3.1089zm39.56 2.3151c0.26339-0.29104 0.53842-0.52917 0.61118-0.52917 0.07276 0-0.08321 0.23812-0.3466 0.52917-0.26339 0.29104-0.53842 0.52917-0.61118 0.52917-0.07276 0 0.08321-0.23812 0.3466-0.52917zm-1.992-3.638-1.7121-1.7859 1.7859 1.7121c1.6589 1.5903 1.9069 1.8597 1.7121 1.8597-0.04058 0-0.84426-0.80367-1.7859-1.7859zm-19.71-3.3073-2.1105-2.1828 2.1828 2.1105c1.2005 1.1608 2.1828 2.143 2.1828 2.1828 0 0.19297-0.29504-0.08313-2.2552-2.1105zm-10.183-3.0427-4.3626-4.4318 4.4318 4.3626c4.1173 4.0531 4.5514 4.5009 4.3626 4.5009-0.03803 0-2.0323-1.9943-4.4318-4.4318zm12.571 2.8861c-0.8318-0.50868-1.7673-1.3306-7.4069-6.5081-4.6334-4.2537-5.839-5.6031-5.4377-6.0866 0.17023-0.20512 1.2844-0.86923 2.476-1.4758 2.2723-1.1567 2.9762-1.6636 3.3939-2.4443 0.21122-0.39467 0.06695-0.55774-0.8844-0.99967-0.92898-0.43153-0.99169-0.50014-0.34305-0.3753 0.43656 0.08402 1.7462 0.61241 2.9104 1.1742 1.7406 0.83998 2.7094 1.5873 5.4531 4.2069 1.835 1.752 3.9186 3.6603 4.6302 4.2407 0.7116 0.5804 2.4362 2.1627 3.8324 3.5162 1.3962 1.3535 1.9669 1.9549 1.2681 1.3365-0.69876-0.61846-1.3383-1.1245-1.4211-1.1245-0.08287 0-0.53446 0.34666-1.0035 0.77034-1.1004 0.99394-5.9902 4.257-6.3773 4.2557-0.163-5.44e-4 -0.65355-0.21942-1.0901-0.4864zm-1.1564-3.2807c0.17457-0.3262 0.96456-1.2489 1.7555-2.0505 2.4203-2.4528 2.7082-2.7877 2.7082-3.1509 0-0.32592-3.3239-3.5981-4.1414-4.0769-0.22962-0.1345-0.62302-0.01154-1.0582 0.33073-0.38095 0.29966-0.8329 0.54483-1.0043 0.54483-0.17142 0-0.8995 0.28281-1.618 0.62846-0.71846 0.34565-1.8192 0.71447-2.4461 0.81959s-1.4349 0.44739-1.7957 0.7606c-0.65596 0.56947-0.65596 0.56947 2.087 3.1257 2.679 2.4966 4.226 3.6585 4.874 3.6605 0.17678 5.44e-4 0.46425-0.2659 0.63883-0.59209zm13.724 2.3129c-0.64268-0.65484-1.109-1.1906-1.0362-1.1906s0.65812 0.53578 1.3008 1.1906c0.64268 0.65484 1.109 1.1906 1.0362 1.1906s-0.65812-0.53578-1.3008-1.1906zm-41.279-2.4474-3.3033-3.3734 3.3734 3.3033c1.8554 1.8168 3.3734 3.3349 3.3734 3.3734 0 0.19009-0.37511-0.16974-3.4436-3.3033zm82.157 0.19844c0.56839-0.58208 1.093-1.0583 1.1657-1.0583 0.0728 0-0.33275 0.47625-0.90114 1.0583-0.56839 0.58208-1.093 1.0583-1.1657 1.0583-0.0728 0 0.33275-0.47625 0.90114-1.0583zm-63.374-3.9026-2.2431-2.3151 2.3151 2.2431c1.2733 1.2337 2.3151 2.2755 2.3151 2.3151 0 0.19251-0.30375-0.09292-2.3871-2.2431zm-24.468-1.1245c-0.79375-0.20198-0.79375-0.20198-0.08176-0.23328 0.39159-0.01722 0.78557 0.08776 0.87551 0.23328 0.08994 0.14552 0.12673 0.2505 0.08176 0.23328-0.04497-0.01722-0.43895-0.12219-0.87551-0.23328zm-3.8861-0.18074c0.191-0.07643 0.4192-0.06703 0.50712 0.02089 0.08792 0.08792-0.06835 0.15045-0.34726 0.13896-0.30822-0.0127-0.37092-0.07539-0.15985-0.15985zm16.449-3.4573-2.5083-2.5797 2.5797 2.5083c1.4188 1.3796 2.5797 2.5404 2.5797 2.5797 0 0.19173-0.32136-0.11233-2.6511-2.5083zm-22.234 0.52917c-0.9118-0.99219-0.9118-0.99219 0.08039-0.08039 0.5457 0.50149 0.99219 0.94797 0.99219 0.99219 0 0.20204-0.2239 0.01171-1.0726-0.9118zm106.38-0.46302c0.34178-0.3638 0.68094-0.66146 0.7537-0.66146 0.0728 0-0.14734 0.29766-0.48911 0.66146-0.34178 0.3638-0.68094 0.66146-0.7537 0.66146-0.0728 0 0.14734-0.29766 0.48911-0.66146zm-80.173-2.9766-3.3033-3.3734 3.3734 3.3033c1.8554 1.8168 3.3734 3.3349 3.3734 3.3734 0 0.19009-0.37511-0.16974-3.4436-3.3033zm82.025 1.174c0-0.04554 0.38695-0.43249 0.85989-0.8599 0.8599-0.7771 0.8599-0.7771 0.0828 0.08279-0.72437 0.80154-0.94268 0.98151-0.94268 0.7771zm-90.399-5.2089c0-1.0914 0.0467-1.5379 0.10379-0.99219 0.05708 0.5457 0.05708 1.4387 0 1.9844-0.05708 0.5457-0.10379 0.09922-0.10379-0.99219zm-20.924 0.39688c0.0029-0.58208 0.05712-0.78905 0.12041-0.45994 0.06329 0.32912 0.06088 0.80537-0.0053 1.0583-0.06622 0.25296-0.118-0.01631-0.11507-0.5984zm37.454 0.21613c0.191-0.07643 0.4192-0.06703 0.50712 0.02089 0.08792 0.08792-0.06835 0.15045-0.34727 0.13896-0.30822-0.0127-0.37092-0.07539-0.15985-0.15985zm-12-0.36603c-0.09592-0.1552-0.11766-0.33893-0.0483-0.40829 0.06936-0.06935 0.1966 0.05763 0.28277 0.28219 0.17891 0.46622 0.02642 0.54823-0.23447 0.1261zm10.66 0.10696c0.1819-0.0734 0.47956-0.0734 0.66146 0s0.03307 0.13345-0.33073 0.13345c-0.3638 0-0.51263-0.06005-0.33073-0.13345zm-1.7198-0.27174c0.25466-0.06655 0.67138-0.06655 0.92604 0 0.25466 0.06655 0.0463 0.121-0.46302 0.121-0.50932 0-0.71768-0.05445-0.46302-0.121zm-2.9068-0.27206c0.40218-0.06082 0.9975-0.05919 1.3229 0.0036 0.32542 0.0628-0.0036 0.11256-0.73124 0.11057-0.7276-2e-3 -0.99386-0.05337-0.59168-0.11418zm-5.4111-0.25546c0.191-0.07643 0.4192-0.06703 0.50712 0.02089 0.08792 0.08792-0.06835 0.15045-0.34727 0.13896-0.30822-0.0127-0.37092-0.07539-0.15985-0.15985zm-13.047-2.5709c-2.8401-0.76422-6.4616-2.1089-7.5406-2.7999-0.30589-0.19589-0.33028-0.36203-0.10639-0.72471 0.39192-0.63486 2.4331-1.8625 3.4137-2.0531 0.54434-0.10581 0.41963-0.0037-0.39688 0.3248-1.3731 0.55251-1.516 1.0947-0.42626 1.617 1.4018 0.67188 8.2189 2.6744 9.12 2.679 0.83013 0.0042 0.87869-0.04333 0.73828-0.72307-0.11519-0.55766-0.0296-0.4804 0.36645 0.33073 0.28421 0.58208 0.48776 1.2965 0.45234 1.5875-0.10061 0.82668-1.9555 0.74809-5.6207-0.23814zm4.0673-3.003c-0.32911-0.41964-0.31975-0.429 0.0999-0.09989 0.25466 0.19972 0.46302 0.40808 0.46302 0.46302 0 0.21776-0.21727 0.0776-0.56292-0.36313zm-1.3229-1.3229c-0.32911-0.41964-0.31975-0.429 0.09989-0.09989 0.25466 0.19972 0.46302 0.40808 0.46302 0.46302 0 0.21776-0.21727 0.0776-0.56292-0.36313zm1.5875-0.26458c-0.32911-0.41964-0.31975-0.429 0.0999-0.09989 0.44073 0.34564 0.58089 0.56292 0.36313 0.56292-0.05494 0-0.2633-0.20836-0.46302-0.46302zm-13.46 0.09854c0-0.05494 0.20836-0.2633 0.46302-0.46302 0.41964-0.32911 0.429-0.31975 0.0999 0.09989-0.34564 0.44073-0.56292 0.58089-0.56292 0.36313zm8.6816-1.1392c0.191-0.07643 0.4192-0.06703 0.50712 0.02089 0.08792 0.08792-0.06835 0.15045-0.34727 0.13896-0.30822-0.0127-0.37092-0.07539-0.15985-0.15985zm-2.3978-0.27056c0.32742-0.06306 0.8632-0.06306 1.1906 0s0.05953 0.11466-0.59531 0.11466c-0.65484 0-0.92274-0.0516-0.59531-0.11466zm-2.1001-0.78776c0.191-0.07643 0.4192-0.06703 0.50712 0.02089 0.08792 0.08792-0.06835 0.15045-0.34726 0.13896-0.30822-0.0127-0.37092-0.07539-0.15985-0.15985zm2.2361-0.2737c0.40218-0.06082 0.9975-0.05919 1.3229 0.0036 0.32542 0.0628-0.0036 0.11256-0.73124 0.11057-0.7276-2e-3 -0.99386-0.05337-0.59167-0.11418z" fill="#acb9c9"/><path d="m98.861 158.04c0.16723-0.12022 0.36471-0.51624 0.43884-0.88004 0.11608-0.56965 0.12896-0.55412 0.09282 0.11189-0.02368 0.43627-0.21495 0.81984-0.43885 0.88004-0.2653 0.0713-0.29607 0.0342-0.09282-0.11189zm-17.37-42.92c0-0.10813 0.63719-0.39746 1.416-0.64295 2.1088-0.66475 4.1769-2.1361 7.7244-5.4955 1.753-1.6601 3.9556-3.6561 4.8948-4.4357 1.2547-1.0415 1.0059-0.73997-0.93829 1.137-4.2706 4.123-7.534 7.0011-8.7401 7.7079-1.4007 0.82089-4.3568 1.9942-4.3568 1.7293zm29.898-9.4214c0.49366-0.50932 0.95709-0.92604 1.0298-0.92604 0.0728 0-0.27161 0.41672-0.76526 0.92604-0.49366 0.50932-0.95709 0.92604-1.0298 0.92604-0.0728 0 0.27161-0.41672 0.76526-0.92604zm-47.172-6.9832c-3.2323-3.0404-7.9732-7.5946-10.535-10.12-2.5621-2.5258-3.0979-3.1034-1.1906-1.2837 5.5964 5.3396 9.6512 9.0866 10.112 9.3448 0.24178 0.1353 0.5027 0.1399 0.59663 0.01051 0.09181-0.12648 0.85718-0.68108 1.7008-1.2324 0.84364-0.55136 1.6004-1.1757 1.6816-1.3874 0.08124-0.21172 0.92086-0.9254 1.8658-1.586 1.2668-0.88553 1.8676-1.1555 2.2871-1.0278 0.50565 0.15391 0.48144 0.0739-0.21733-0.71811-0.43251-0.49022-3.1114-3.2691-5.9531-6.1753-5.1667-5.284-5.1667-5.284 0.78638 0.56228 8.6424 8.4874 12.965 12.852 12.965 13.093 0 0.1162-0.18303 0.14104-0.40673 0.0552-0.2237-0.08584-0.61065 0.0251-0.8599 0.24654-0.24924 0.22144-0.86988 0.59075-1.3792 0.82069-0.99657 0.44992-3.0296 1.8066-4.4539 2.9723-0.65559 0.53653-0.85182 0.88004-0.76429 1.3379 0.06477 0.33882 0.0107 0.61604-0.12015 0.61604s-2.8825-2.4876-6.1149-5.528zm49.156 4.9989c0.26339-0.29105 0.53842-0.52917 0.61118-0.52917 0.0728 0-0.0832 0.23812-0.3466 0.52917-0.26339 0.29104-0.53842 0.52916-0.61118 0.52916-0.0728 0 0.0832-0.23812 0.3466-0.52916zm-23.465-3.3557c0.191-0.0764 0.4192-0.067 0.50712 0.0209 0.08792 0.0879-0.06835 0.15046-0.34727 0.13897-0.30822-0.0127-0.37092-0.0754-0.15985-0.15985zm1.8521 0c0.191-0.0764 0.4192-0.067 0.50712 0.0209 0.08792 0.0879-0.06835 0.15046-0.34726 0.13897-0.30822-0.0127-0.37092-0.0754-0.15985-0.15985zm-12.684-1.3406c-0.32911-0.41964-0.31975-0.429 0.09989-0.0999 0.25466 0.19972 0.46302 0.40808 0.46302 0.46302 0 0.21776-0.21727 0.0776-0.56292-0.36313zm6.8987-1.0583c-0.9118-0.99219-0.9118-0.99219 0.08039-0.08039 0.5457 0.50149 0.99219 0.94797 0.99219 0.99219 0 0.20204-0.2239 0.01171-1.0726-0.9118zm11.005-1.3972c0.86757-0.95034 1.6314-1.6901 1.6973-1.6439 0.06597 0.04618-0.64386 0.82373-1.5774 1.7279l-1.6973 1.6439zm-18.271-5.6143-2.9059-2.9766 2.9766 2.9059c2.7647 2.6991 3.0967 3.0472 2.9059 3.0472-0.03886 0-1.3783-1.3395-2.9766-2.9766zm16.144 0.41137c-1.3097-1.2522-2.8487-2.6183-3.42-3.0357-1.0387-0.75899-1.0387-0.75899-1.7198-0.13299-0.6608 0.60734-2.2985 1.6171-5.3237 3.2824-1.7068 0.93952-1.5546 0.98592-4.5016-1.3729-4.9069-3.9276-17.446-15.755-17.446-16.455 0-0.19438 0.76617-0.97951 1.7026-1.7447 1.7026-1.3913 1.7026-1.3913 0.7276-1.6192-0.53625-0.12534-2.4923-0.2444-4.3467-0.26458-1.8544-0.02018-3.3725-0.14459-3.3734-0.27645-0.0025-0.34327 7.3537 0.01805 10.093 0.49575 1.2525 0.21842 2.8326 0.63514 3.5112 0.92606 1.0409 0.44617 1.1946 0.60253 0.9822 0.99931-0.41709 0.77935-1.1219 1.2868-3.3933 2.4431-2.9992 1.5268-3.0274 1.5808-1.6324 3.1261 1.0175 1.1271 4.7649 4.6432 9.6212 9.0272 1.6555 1.4945 2.9655 2.402 3.4699 2.4036 0.38711 0.0013 5.2769-3.2618 6.3773-4.2557 0.46906-0.42369 0.91713-0.77034 0.9957-0.77034 0.19819 0 7.6762 6.8082 9.1206 8.3037 1.8775 1.9439 1.1463 1.3974-1.4442-1.0793zm-24.213-8.2166-3.5682-3.638 3.638 3.5682c2.0009 1.9625 3.638 3.5996 3.638 3.638 0 0.1897-0.39322-0.18871-3.7078-3.5682zm-24.881-2.1167c-0.9118-0.99219-0.9118-0.99219 0.08039-0.08039 0.5457 0.50149 0.99219 0.94797 0.99219 0.99219 0 0.20204-0.22389 0.01171-1.0726-0.9118zm-4.1529-0.78482c0.40018-0.06062 1.055-0.06062 1.4552 0s0.07276 0.11022-0.7276 0.11022c-0.80036 0-1.1278-0.0496-0.7276-0.11022zm-1.9678-0.25582c0.191-0.07643 0.4192-0.06703 0.50712 0.02089 0.08792 0.08792-0.06835 0.15045-0.34726 0.13896-0.30822-0.0127-0.37092-0.07539-0.15985-0.15985zm-2.4621-0.87456c-0.09269-0.14998 0.01351-0.19434 0.24897-0.10398 0.45837 0.17589 0.54223 0.36554 0.16165 0.36554-0.13693 0-0.32171-0.1177-0.41062-0.26155zm24.998-4.1702-4.3626-4.4318 4.4318 4.3626c2.4375 2.3994 4.4318 4.3937 4.4318 4.4318 0 0.18879-0.44787-0.24532-4.5009-4.3626zm-26.489 3.175c-0.32911-0.41964-0.31975-0.429 0.09989-0.0999 0.25466 0.19972 0.46302 0.40808 0.46302 0.46302 0 0.21776-0.21727 0.0776-0.56292-0.36313zm21.18-1.0583c-0.64143-0.7276-0.64143-0.7276 0.08617-0.08617 0.40018 0.35279 0.7276 0.68021 0.7276 0.7276 0 0.20751-0.21426 0.03862-0.81378-0.64143zm-2.5018-2.5135-1.5792-1.6536 1.6536 1.5792c1.5361 1.467 1.7747 1.7281 1.5792 1.7281-0.04094 0-0.78508-0.74414-1.6536-1.6536zm-22.572-3.1089c0-0.3638 0.06005-0.51263 0.13345-0.33073 0.0734 0.1819 0.0734 0.47956 0 0.66146s-0.13345 0.03307-0.13345-0.33073zm20.42-2.1167c0-1.0914 0.0467-1.5379 0.10379-0.99219 0.05708 0.5457 0.05708 1.4387 0 1.9844s-0.10379 0.09922-0.10379-0.99219zm-8.614 0.41869c-3.5284-0.91212-4.9026-1.3699-7.4161-2.4706-1.2677-0.55512-1.5214-0.77631-1.5214-1.3265 0-1.6993 2.8114-4.131 5.7705-4.9912 1.5845-0.46064 3.5953-0.32988 4.9451 0.32157 0.43656 0.21069 0.55562 0.30979 0.26458 0.22023-1.9784-0.60881-3.7449-0.70751-5.1763-0.28921-1.5965 0.46656-3.6873 1.8204-3.6873 2.3876 0 0.92939 9.5736 4.1419 12.343 4.1419 0.56795 0 0.96033-0.15081 1.0586-0.40685 0.259-0.67495-0.71572-2.794-1.8676-4.0601-0.59579-0.65489-0.81975-1.0109-0.49768-0.79117 1.5185 1.0361 2.7993 3.5464 2.8178 5.5227 0.02079 2.227-0.32563 2.6494-2.1559 2.6287-0.83162-0.0094-3.0266-0.40861-4.8777-0.88714zm-11.796-0.81557c0.0054-0.43656 0.06469-0.58312 0.13177-0.32569 0.06708 0.25743 0.06267 0.61462-0.0098 0.79375-0.07248 0.17913-0.12736-0.03149-0.12197-0.46806zm20.078-1.8966c-0.01149-0.17-0.08941-0.52719-0.17316-0.79375-0.14474-0.4607-0.13727-0.46128 0.15102-0.01167 0.16681 0.26014 0.24473 0.61733 0.17316 0.79375-0.09392 0.23151-0.13594 0.23476-0.15102 0.01167zm-19.335-0.78687c0-0.14196 0.18516-0.48923 0.41147-0.7717 0.38798-0.48427 0.39348-0.47583 0.09645 0.14787-0.38571 0.8099-0.50792 0.96-0.50792 0.62383zm18.127-1.847c-0.25011-0.38172-0.32398-0.61321-0.16414-0.51443 0.30543 0.18877 0.92146 1.2085 0.73006 1.2085-0.06114 0-0.31581-0.31232-0.56592-0.69404zm-16.804-0.44709c0-0.04553 0.38695-0.43249 0.8599-0.8599 0.8599-0.77711 0.8599-0.77711 0.08279 0.08279-0.72437 0.80154-0.94269 0.98151-0.94269 0.7771zm15.841-0.9094c-0.32911-0.41964-0.31975-0.429 0.09989-0.0999 0.44073 0.34564 0.58089 0.56292 0.36313 0.56292-0.05494 0-0.2633-0.20836-0.46302-0.46302zm-1.0583-0.79375c-0.32911-0.41964-0.31975-0.429 0.0999-0.09989 0.44073 0.34564 0.58089 0.56292 0.36313 0.56292-0.05494 0-0.2633-0.20836-0.46302-0.46302zm-12.931 0.09854c0-0.05494 0.20836-0.2633 0.46302-0.46302 0.41964-0.32911 0.429-0.31975 0.09989 0.09989-0.34564 0.44073-0.56292 0.58089-0.56292 0.36313zm10.848-0.42927c-0.23847-0.15411-0.2711-0.2581-0.08176-0.26053 0.17331-0.0022 0.3887 0.11501 0.47864 0.26053 0.20302 0.32849 0.11142 0.32849-0.39688 0zm0-0.73266c-1.0827-0.5123-2.0986-0.73769-3.9688-0.88048l-2.5135-0.19192 2.5135 0.0552c2.0845 0.04578 2.7732 0.17475 4.0349 0.7556 0.83674 0.38522 1.5214 0.76652 1.5214 0.84733 0 0.18064 0.14609 0.23454-1.5875-0.58573zm-9.4083 0.0858c0.28248-0.22631 0.62974-0.41147 0.7717-0.41147 0.33616 0 0.18606 0.12221-0.62383 0.50792-0.62369 0.29703-0.63214 0.29153-0.14787-0.09645zm2.2149-0.8568c0.191-0.07643 0.4192-0.06703 0.50712 0.02089 0.08792 0.08792-0.06835 0.15045-0.34727 0.13896-0.30822-0.0127-0.37092-0.07539-0.15985-0.15985z" fill="#95a1ad"/><path d="m86.783 112.88c0-0.0549 0.20836-0.2633 0.46302-0.46302 0.41964-0.32911 0.429-0.31975 0.0999 0.0999-0.34564 0.44073-0.56292 0.58089-0.56292 0.36313zm1.8521-1.6199c0.49366-0.50932 0.95709-0.92604 1.0298-0.92604s-0.27161 0.41672-0.76526 0.92604-0.95709 0.92604-1.0298 0.92604c-0.07276 0 0.27161-0.41672 0.76526-0.92604zm3.5719-3.3073c1.1573-1.1642 2.1638-2.1167 2.2365-2.1167s-0.81462 0.9525-1.972 2.1167-2.1638 2.1167-2.2365 2.1167 0.81462-0.9525 1.972-2.1167zm18.918-2.2166c0-0.0549 0.20836-0.2633 0.46302-0.46302 0.41964-0.32911 0.429-0.31975 0.0999 0.0999-0.34564 0.44073-0.56291 0.58089-0.56291 0.36313zm-20.439-5.367c0.1819-0.0734 0.47956-0.0734 0.66146 0s0.03307 0.13345-0.33073 0.13345c-0.3638 0-0.51263-0.06-0.33073-0.13345zm5.0932-2.8675c0.93748-0.94588 1.764-1.7198 1.8368-1.7198s-0.63474 0.77391-1.5722 1.7198c-0.93748 0.94588-1.764 1.7198-1.8368 1.7198-0.07276 0 0.63474-0.77391 1.5722-1.7198zm-13.891-3.5719c-1.7417-1.7462-3.1072-3.175-3.0344-3.175s1.5573 1.4288 3.299 3.175c1.7417 1.7462 3.1072 3.175 3.0344 3.175-0.07276 0-1.5573-1.4288-3.299-3.175zm-20.701 1.5462c-2.2287-1.9948-5.0445-4.6854-8.7942-8.4032l-3.3133-3.2851 3.2191 3.0529c1.7705 1.6791 3.5751 3.3064 4.0102 3.6163 0.71 0.50556 0.77838 0.51464 0.66694 0.08848-0.16384-0.62652 1.0748-1.9806 2.4224-2.6482 0.58208-0.28835 2.1545-0.79291 3.4942-1.1212 2.072-0.50779 2.4016-0.66099 2.2065-1.0256-0.12617-0.23575-1.677-1.9149-3.4462-3.7314-5.0504-5.1853-4.5744-4.8257 1.4071 1.0629 6.2701 6.1728 8.527 8.6339 7.6669 8.3609-0.41361-0.13128-1.0102 0.13663-2.2784 1.0232-0.94495 0.66057-1.7846 1.3743-1.8658 1.586-0.08124 0.21172-0.83796 0.83638-1.6816 1.3881s-1.5736 1.0925-1.6221 1.2016c-0.17912 0.40303-0.60302 0.16679-2.0918-1.1658zm22.826-1.8274c-1.5742-1.1027-5.9615-4.717-5.9615-4.9111 0-0.05955 0.78202 0.51882 1.7378 1.2853 3.0842 2.4731 2.8739 2.406 4.585 1.4639 3.0435-1.6758 4.6769-2.6826 5.3385-3.2907 0.68109-0.626 0.68109-0.626 1.7198 0.13727 0.57129 0.41979 1.9442 1.6424 3.051 2.7169 1.1067 1.0745 1.4566 1.4638 0.77736 0.86511-2.0962-1.8478-2.238-1.8745-3.4094-0.64313-0.66295 0.6969-1.8985 1.4795-3.5664 2.2589-1.4036 0.65592-2.5938 1.1926-2.6448 1.1926-0.05101 0-0.78331-0.48374-1.6273-1.075zm13.725 0.47967c-0.50403-0.59531-0.50403-0.59531 0.09128-0.09128 0.55945 0.47366 0.71576 0.6866 0.50403 0.6866-0.05021 0-0.3181-0.26789-0.59531-0.59531zm-21.274-6.6807c-0.64268-0.65484-1.109-1.1906-1.0362-1.1906s0.65812 0.53578 1.3008 1.1906c0.64268 0.65484 1.109 1.1906 1.0362 1.1906s-0.65812-0.53578-1.3008-1.1906zm-9.7896-8.2792c-5.0205-4.9053-9.174-9.0267-9.2302-9.1587-0.11473-0.26982 6.2133-0.01488 7.5596 0.30456 0.84299 0.20001 0.84299 0.20001-0.8599 1.5913-0.93659 0.76522-1.7029 1.559-1.7029 1.7639s2.292 2.6151 5.0932 5.356c2.8013 2.7408 4.4942 4.4176 3.762 3.7262-0.73218-0.69146-1.4448-1.2572-1.5835-1.2572s1.2324 1.4883 3.0471 3.3073c1.8146 1.819 3.2416 3.3024 3.171 3.2963-0.07058-6e-3 -4.236-4.0244-9.2564-8.9297zm2.9104 2.2433c0-0.04554-0.38695-0.43249-0.8599-0.8599-0.8599-0.7771-0.8599-0.7771-0.08279 0.08279 0.72437 0.80154 0.94269 0.98151 0.94269 0.7771zm-2.4033-2.3856c-0.06063-0.04795-0.70556-0.60848-1.4332-1.2456-1.3229-1.1584-1.3229-1.1584-0.14335 0.08719 0.64876 0.68509 1.2937 1.2456 1.4332 1.2456s0.20398-0.03924 0.14335-0.08719zm-7.6024-7.6431c-0.1722-0.1722-0.31309-0.5274-0.31309-0.78934 0-0.34085-0.20281-0.47625-0.71336-0.47625-0.71336 0-0.71336 0 0.18035 0.92208 0.49154 0.50714 0.95344 0.86235 1.0265 0.78934 0.07301-0.07301-0.0082-0.27363-0.18035-0.44583zm14.359 13.75c-1.0459-1.1245-1.0459-1.1245 0.0786-0.0786 1.0458 0.97266 1.2461 1.2031 1.0459 1.2031-0.04323 0-0.54924-0.50602-1.1245-1.1245zm-25.677-1.8521c-0.50403-0.59531-0.50403-0.59531 0.09128-0.09128 0.55945 0.47366 0.71576 0.6866 0.50403 0.6866-0.05021 0-0.3181-0.26789-0.59531-0.59531zm-1.9592-1.9182c-0.64268-0.65484-1.109-1.1906-1.0362-1.1906s0.65812 0.53578 1.3008 1.1906c0.64268 0.65484 1.109 1.1906 1.0362 1.1906-0.07276 0-0.65812-0.53578-1.3008-1.1906zm-5.8704-1.3714c0.191-0.07643 0.4192-0.06703 0.50712 0.02089 0.08792 0.08792-0.06835 0.15045-0.34726 0.13896-0.30822-0.0127-0.37092-0.07539-0.15985-0.15985zm3.2908-0.0016c0.25466-0.06655 0.67138-0.06655 0.92604 0 0.25466 0.06655 0.0463 0.121-0.46302 0.121-0.50932 0-0.71768-0.05445-0.46302-0.121zm-9.082-2.9265c-0.64143-0.7276-0.64143-0.7276 0.08617-0.08617 0.40018 0.35279 0.7276 0.68021 0.7276 0.7276 0 0.20751-0.21426 0.03862-0.81378-0.64143zm19.243-2.6923c-0.82252-0.86232-1.4919-1.7255-1.4874-1.9182 0.0044-0.1927 0.13852-0.11225 0.298 0.1788s0.89593 1.1542 1.6366 1.9182c0.74064 0.76398 1.2795 1.3891 1.1975 1.3891-0.08202 0-0.82209-0.70554-1.6446-1.5679zm-8.6392-1.8778c-3.5086-0.75247-9.794-3.0466-11.046-4.0319-0.53602-0.42171-0.37996-2.1251 0.32166-3.511 0.35881-0.70875 0.58778-1.3532 0.50881-1.4322-0.07897-0.07897-0.50294 0.27238-0.94215 0.78077-0.79246 0.91728-0.79423 0.91782-0.23125 0.07154 0.76488-1.1498 2.5499-2.5786 4.1343-3.3093 1.1033-0.50882 1.7456-0.60037 4.2123-0.60037 2.606 0 3.0692 0.07439 4.4279 0.7112 0.83463 0.39116 1.9294 1.0254 2.4328 1.4094 0.85372 0.65116 2.5319 2.9342 2.5319 3.4445 0 0.12489-0.38597-0.36178-0.85772-1.0815-1.2003-1.8313-1.21-1.8426-1.4057-1.6469-0.09655 0.09655 0.07808 0.53172 0.38806 0.96704 1.3247 1.8603 1.675 4.2652 0.93692 6.4313-0.83767 2.4584-1.4229 2.6528-5.4115 1.7974zm5.0726-2.4413c0.56905-1.0306 0.3805-3.3485-0.39663-4.8761-0.38343-0.75369-0.81848-1.4453-0.96677-1.537-0.3912-0.24177-0.33197-0.73168 0.06112-0.50547 0.1819 0.10468 0.23799 0.08842 0.12463-0.03614-0.11335-0.12456-0.37695-0.25154-0.58577-0.28219-0.20882-0.03065-0.71139-0.28529-1.1168-0.56586-1.0586-0.73257-2.732-1.3396-4.2468-1.5406-3.3592-0.44562-8.5289 2.7289-8.5289 5.2373 0 0.55014 0.2537 0.77134 1.5214 1.3265 3.7887 1.6591 9.9093 3.3308 12.294 3.3577 1.3038 0.01474 1.5573-0.06491 1.8408-0.57822zm-11.823-8.882c-0.17472-0.19033-2.1593 1.009-2.7748 1.6769-0.52217 0.56663-0.29149 0.47455 1.0955-0.43727 0.96632-0.63527 1.722-1.1931 1.6793-1.2396zm-6.4581 10.91c0.0127-0.30822 0.07539-0.37092 0.15985-0.15985 0.07643 0.191 0.06703 0.4192-0.02089 0.50712-0.08792 0.08792-0.15045-0.06835-0.13896-0.34726zm20.108-0.52917c0.0127-0.30822 0.07539-0.37092 0.15985-0.15985 0.07643 0.191 0.06703 0.4192-0.02089 0.50712-0.08792 0.08792-0.15045-0.06835-0.13896-0.34727zm-20.342-1.3009c0.0054-0.43656 0.06469-0.58312 0.13177-0.32569 0.06708 0.25743 0.06267 0.61462-0.0098 0.79375-0.07248 0.17913-0.12736-0.03149-0.12197-0.46806zm0.23389-1.8741c0.0127-0.30822 0.07539-0.37092 0.15985-0.15985 0.07643 0.191 0.06703 0.4192-0.02089 0.50712-0.08792 0.08792-0.15045-0.06835-0.13896-0.34727zm19.865-0.63941c0-0.3638 0.06005-0.51263 0.13345-0.33073 0.0734 0.1819 0.0734 0.47956 0 0.66146s-0.13345 0.03307-0.13345-0.33073z" fill="#778696"/><path d="m86.275 124.99c0.0127-0.30823 0.07539-0.37092 0.15985-0.15986 0.07643 0.191 0.06703 0.4192-0.02089 0.50712-0.08792 0.0879-0.15045-0.0683-0.13896-0.34726zm-0.26458-1.5875c0.0127-0.30823 0.07539-0.37092 0.15985-0.15986 0.07643 0.191 0.06703 0.4192-0.02089 0.50712-0.08792 0.0879-0.15045-0.0683-0.13896-0.34726zm-1.0792-3.2001c0-0.14721-0.49128-1.0303-1.0917-1.9623-0.60045-0.93206-0.85607-1.4837-0.56805-1.2258 0.65508 0.58647 2.0321 3.0835 1.8183 3.2973-0.08719 0.0872-0.15853 0.0381-0.15853-0.10913zm9.3316-9.9531c-1.3208-0.68763-1.0699-1.2871 1.8502-4.4193 2.4316-2.6082 4.0961-4.4724 5.2901-5.9247 0.86343-1.0502 17.414-16.857 24.165-23.08 6.0497-5.5759 8.7338-6.6443 17.306-6.8881l4.8948-0.13921-4.502 4.4561c-5.9602 5.8994-8.9813 8.7775-8.7097 8.2974 0.33243-0.58751-1.0213 0.52627-4.1185 3.3885-1.528 1.4121-4.4374 4.0539-6.4654 5.8708-2.028 1.8169-5.4274 4.9108-7.5542 6.8753-3.8461 3.5527-10.338 9.3751-11.138 9.9888-0.72202 0.55419-4.9403 1.6498-6.2587 1.6256-0.69296-0.0127-1.9148 0.0397-2.7151 0.1165-0.86769 0.0833-1.6935 0.0156-2.0455-0.1676zm44.379-9.2648c0-0.0455 0.38696-0.43249 0.8599-0.85989 0.8599-0.77711 0.8599-0.77711 0.0828 0.0828-0.72437 0.80154-0.94269 0.98151-0.94269 0.7771zm2.6458-2.6629c0-0.05494 0.20836-0.2633 0.46302-0.46302 0.41964-0.32911 0.429-0.31975 0.0999 0.0999-0.34564 0.44073-0.56291 0.58089-0.56291 0.36313zm-10.451-4.398c2.0334-2.0373 3.7566-3.7042 3.8294-3.7042 0.0728 0-1.5314 1.6669-3.5648 3.7042s-3.7566 3.7042-3.8294 3.7042c-0.0728 0 1.5314-1.6669 3.5648-3.7042zm15.61-0.79375c1.4498-1.4552 2.6954-2.6458 2.7682-2.6458 0.0728 0-1.0539 1.1906-2.5036 2.6458-1.4498 1.4552-2.6954 2.6458-2.7682 2.6458-0.0728 0 1.0539-1.1906 2.5036-2.6458zm-2.63-11.807c4.5199-4.4928 8.3826-8.3871 8.5837-8.654 0.2213-0.29365 0.43427-1.5476 0.53922-3.175 0.13812-2.1416 0.31191-2.9592 0.85286-4.0126 0.86367-1.6818 2.5676-3.3295 4.4281-4.282 1.3466-0.68946 1.6822-0.74505 4.4979-0.74505 2.7863 0 3.1654 0.0611 4.4979 0.72502 0.80037 0.39876 1.9315 1.1542 2.5136 1.6787 1.0583 0.95368 1.0583 0.95368 0 0.17316-1.0519-0.77574-2.0879-1.3863-2.3525-1.3863-0.0761 0 0.46313 0.56262 1.1983 1.2503 1.6954 1.5858 2.399 2.9328 2.2931 4.3897-0.0805 1.1069-0.0805 1.1069-3.1232 2.6354-3.804 1.911-5.8366 2.7155-8.8635 3.5082-2.3812 0.62361-2.3812 0.62361-3.3118 0.01327-0.51183-0.33569-1.164-1.0437-1.4492-1.5734-0.56564-1.0503-0.92747-1.2373-0.92747-0.47924 0 0.9439-1.6154 2.8969-5.0841 6.1464-1.9325 1.8104-4.1174 3.887-4.8553 4.6146-0.73789 0.7276-2.7622 2.6771-4.4985 4.3322-1.7363 1.6551 0.54117-0.66659 5.061-5.1594zm12.32-11.35c0.63675-0.22194 1.5149-0.56932 1.9515-0.77196 0.43656-0.20264 2.0439-0.86777 3.5719-1.4781 4.1133-1.6429 6.8792-3.1315 6.8792-3.7024 0-0.26189-0.38695-0.80324-0.85989-1.203-2.929-2.4757-7.8266-2.4498-10.755 0.0569-1.9348 1.6561-3.0384 4.6655-2.4097 6.5705 0.16909 0.51234 0.34276 0.93153 0.38594 0.93153 0.0432 0 0.5995-0.18158 1.2363-0.40352zm-1.4069-5.292c-0.0815-0.08146-0.22941 0.06538-0.32877 0.32632-0.14358 0.37708-0.11319 0.40748 0.14812 0.14811 0.18082-0.17948 0.26211-0.39297 0.18065-0.47443zm0.44797 19.983c0.26339-0.29104 0.53842-0.52917 0.61118-0.52917 0.0728 0-0.0832 0.23812-0.34659 0.52917-0.26339 0.29104-0.53842 0.52917-0.61118 0.52917-0.0728 0 0.0832-0.23812 0.34659-0.52917zm0.92604-0.89364c0-0.05494 0.20836-0.2633 0.46303-0.46302 0.41964-0.32911 0.429-0.31975 0.0999 0.0999-0.34564 0.44073-0.56292 0.58089-0.56292 0.36313zm1.5875-1.8845c0.49366-0.50932 0.95709-0.92604 1.0298-0.92604 0.0728 0-0.27161 0.41672-0.76526 0.92604-0.49366 0.50932-0.95709 0.92604-1.0298 0.92604-0.0728 0 0.27161-0.41672 0.76526-0.92604zm1.3229-1.0259c0-0.05494 0.20836-0.2633 0.46302-0.46302 0.41965-0.32911 0.429-0.31975 0.0999 0.09989-0.34565 0.44073-0.56292 0.58089-0.56292 0.36313zm2.5797-0.88058c0.32742-0.06306 0.8632-0.06306 1.1906 0 0.32743 0.06306 0.0595 0.11466-0.59531 0.11466-0.65484 0-0.92273-0.0516-0.59531-0.11466zm11.245-9.9997c3e-3 -0.58208 0.0571-0.78906 0.1204-0.45994 0.0633 0.32912 0.0609 0.80537-5e-3 1.0583-0.0662 0.25296-0.118-0.01631-0.11506-0.5984z" fill="#0e9be9"/><path d="m98.822 157.69c0.08994-0.14553 0.21603-0.26459 0.2802-0.26459 0.06417 0 0.11668 0.11906 0.11668 0.26459 0 0.14552-0.12609 0.26458-0.2802 0.26458-0.15411 0-0.20661-0.11906-0.11668-0.26458zm-9.9419-6.813c-0.64143-0.7276-0.64143-0.7276 0.08617-0.0862 0.68006 0.59952 0.84894 0.81378 0.64143 0.81378-0.04739 0-0.37482-0.32742-0.7276-0.72761zm-7.1237-35.23c0-0.27475 0.50329-0.6725 0.65238-0.51556 0.0484 0.051-0.07858 0.24616-0.28219 0.4338-0.2036 0.18764-0.37019 0.22443-0.37019 0.0818zm1.8741-0.91844c0.27227-0.24362 1.83-0.95948 1.83-0.84098 0 0.15239-1.4668 0.93963-1.7508 0.93963-0.10424 0-0.13992-0.0444-0.07928-0.0987zm3.4175-1.8533c0-0.0549 0.20836-0.2633 0.46302-0.46302 0.41964-0.32911 0.429-0.31975 0.0999 0.0999-0.34564 0.44073-0.56292 0.58089-0.56292 0.36313zm1.9844-1.7522c0.56839-0.58208 1.093-1.0583 1.1657-1.0583s-0.33275 0.47625-0.90114 1.0583-1.093 1.0583-1.1657 1.0583c-0.07276 0 0.33275-0.47625 0.90114-1.0583zm16.801-0.39688c0.79042-0.80036 1.4967-1.4552 1.5694-1.4552 0.0728 0-0.51442 0.65484-1.3048 1.4552-0.79043 0.80037-1.4967 1.4552-1.5694 1.4552-0.0728 0 0.51442-0.65484 1.3048-1.4552zm-14.684-1.4552c0.26339-0.29105 0.53842-0.52917 0.61118-0.52917s-0.08321 0.23812-0.3466 0.52917c-0.26339 0.29104-0.53842 0.52916-0.61118 0.52916s0.08321-0.23812 0.3466-0.52916zm3.3073-3.3073c1.2305-1.2369 2.2968-2.249 2.3696-2.249s-0.87448 1.012-2.105 2.249c-1.2305 1.2369-2.2968 2.249-2.3696 2.249s0.87448-1.012 2.105-2.249zm20.373-3.9364c0-0.0549 0.20835-0.2633 0.46302-0.46302 0.41964-0.32911 0.429-0.31975 0.0999 0.0999-0.34564 0.44072-0.56291 0.58088-0.56291 0.36312zm-19.976-3.8689c0.71666-0.7276 1.3626-1.3229 1.4353-1.3229 0.07276 0-0.45407 0.59531-1.1707 1.3229-0.71666 0.7276-1.3626 1.3229-1.4353 1.3229-0.07276 0 0.45407-0.59531 1.1707-1.3229zm-8.8778-0.46302c-0.9118-0.99219-0.9118-0.99219 0.08039-0.08039 0.5457 0.50149 0.99219 0.94797 0.99219 0.99219 0 0.20204-0.2239 0.01171-1.0726-0.9118zm-1.7734-3.4925c-1.4369-1.1569-3.1405-2.5957-3.7859-3.1972s-0.34512-0.41379 0.66718 0.41725 2.4567 1.9201 3.2098 2.4201c1.3693 0.90914 1.3693 0.90914 3.957-0.30009 1.7081-0.79819 2.935-1.5743 3.6095-2.2833 1.0218-1.0741 1.0218-1.0741 1.8754-0.54467 1.0375 0.64348 2.9733 2.6204 2.1524 2.1982-0.44968-0.2313-0.73962-0.15798-1.5483 0.39154-1.5722 1.0683-5.9295 3.0017-6.765 3.0017-0.5535 0-1.4681-0.5705-3.372-2.1035zm-0.89198 0.84671c-0.32911-0.41964-0.31975-0.429 0.0999-0.0999 0.25466 0.19972 0.46302 0.40808 0.46302 0.46302 0 0.21776-0.21727 0.0776-0.56292-0.36313zm14.042-1.0583c-0.9118-0.99219-0.9118-0.99219 0.08039-0.08039 0.5457 0.50149 0.99219 0.94797 0.99219 0.99219 0 0.20204-0.2239 0.01171-1.0726-0.9118zm-42.121-4.4979c-2.2847-1.9821-10.268-9.5911-10.063-9.5911 0.08703 0 1.0812 0.83344 2.2094 1.8521 2.0569 1.8573 2.5431 2.1732 2.2769 1.4795-0.16286-0.4244 0.2526-0.56154 2.7896-0.92082 2.5458-0.36053 5.7634-1.9858 5.7634-2.9111 0-0.44287-1.9819-2.5971-3.8797-4.2171-1.3733-1.1723-1.98-1.8931-2.2029-2.6174-0.1692-0.54975-0.36376-1.1728-0.43236-1.3846-0.0784-0.24203-0.4091 0.11288-0.89039 0.95558-0.99376 1.74-2.183 2.7368-3.2653 2.7368-0.99082 0-3.0536-0.59795-7.5856-2.1989-6.0415-2.1342-6.1764-2.2219-6.6466-4.3233-0.22032-0.98448-0.39584-1.3283-0.55878-1.0946-0.34181 0.49024 0.04258-0.81295 0.51154-1.7343 0.51565-1.0131 2.8911-3.2697 4.1037-3.8983 1.6086-0.83398 1.4768-0.58248-0.32872 0.62716-1.9361 1.2971-3.1665 3.2194-3.1665 4.9471 0 1.1979 0.06483 1.2537 2.9104 2.5053 4.3197 1.9 10.775 3.5927 12.27 3.2174 0.84673-0.21252 1.8129-2.1956 1.9654-4.0339 0.13758-1.6591-0.36639-3.2953-1.5407-5.0021-0.60865-0.88464-0.69791-1.1306-0.32604-0.89834 0.84825 0.52974 2.2348 2.7889 2.6178 4.2652 0.19786 0.76276 0.35974 2.0675 0.35974 2.8995 0 0.83194 0.11743 1.8215 0.26096 2.199 0.14353 0.37751 2.9833 3.3961 6.3106 6.7079 3.3273 3.3119 6.1813 6.2674 6.3421 6.568 0.2773 0.51814 0.1664 0.5773-2.1434 1.1434-1.3397 0.32833-2.9121 0.83289-3.4942 1.1212-1.347 0.6673-2.5863 2.0217-2.4226 2.6477 0.06823 0.26091 0.09817 0.47438 0.06654 0.47438s-0.84662-0.68461-1.8111-1.5214zm18.055-4.2158c-2.9818-3.0099-4.9449-5.0638-4.3623-4.5641 2.5933 2.2244 8.5981 7.7168 8.5981 7.8644 0 0.08964-0.4515-0.27789-1.0033-0.81675-0.55184-0.53886-1.1144-0.97974-1.2501-0.97974-0.13574 0 0.6402 0.89297 1.7243 1.9844s1.9135 1.9844 1.843 1.9844-2.5678-2.4627-5.5496-5.4726zm1.8545 1.421c0-0.04554-0.38695-0.43249-0.8599-0.8599-0.8599-0.7771-0.8599-0.7771-0.08279 0.08279 0.72437 0.80154 0.94269 0.98151 0.94269 0.77711zm3.155 2.5302c-0.64143-0.7276-0.64143-0.7276 0.08617-0.08617 0.68006 0.59952 0.84894 0.81378 0.64143 0.81378-0.04739 0-0.37482-0.32742-0.7276-0.7276zm-36.687-9.2518c0.40218-0.06082 0.9975-0.05919 1.3229 0.0036 0.32542 0.0628-0.0036 0.11256-0.73124 0.11057-0.7276-2e-3 -0.99386-0.05337-0.59167-0.11418zm23.996-2.1141c-1.1796-1.2456-1.1796-1.2456 0.14335-0.08719 0.7276 0.63713 1.3725 1.1977 1.4332 1.2456 0.06063 0.04796-0.0039 0.08719-0.14335 0.08719-0.13948 0-0.7844-0.56053-1.4332-1.2456zm-6.872-6.8281c-0.89371-0.92208-0.89371-0.92208-0.18035-0.92208 0.51055 0 0.71336 0.1354 0.71336 0.47625 0 0.26194 0.14089 0.61714 0.31309 0.78934 0.1722 0.1722 0.25336 0.37282 0.18035 0.44583-0.07301 0.07301-0.53491-0.2822-1.0265-0.78934zm-26.677 0.13626c0-0.3638 0.06005-0.51263 0.13345-0.33073 0.0734 0.1819 0.0734 0.47956 0 0.66146s-0.13345 0.03307-0.13345-0.33073zm0-1.8521c0-0.3638 0.06005-0.51263 0.13345-0.33073 0.0734 0.1819 0.0734 0.47956 0 0.66146s-0.13345 0.03307-0.13345-0.33073z" fill="#677789"/><path d="m88.684 99.59c-1.0165-0.50656-3.1997-2.4895-8.3202-7.5574-6.942-6.8707-6.942-6.8707-2.841-3.388 7.3065 6.2047 9.2196 7.6634 10.051 7.6634 0.83519 0 5.1926-1.9332 6.7636-3.0007 0.89833-0.61043 1.0594-0.64072 1.6806-0.31606 0.37788 0.19749 1.0433 0.73369 1.4786 1.1915 0.79157 0.83246 0.79157 0.83246-1.5875 3.078-3.4371 3.2441-4.6224 3.6262-7.2252 2.3292zm-41.324-17.84c-1.9844-1.8352-1.9844-1.8352-4.516-1.8406-1.4515-0.0031-3.0957-0.17284-3.8535-0.39789-1.783-0.52949-4.0898-2.2298-5.1055-3.7632-1.5525-2.3439-2.1325-5.938-1.2908-7.999 0.37163-0.90998 0.37163-0.90998 0.70181 0.56542 0.4803 2.1462 0.5985 2.2237 6.6556 4.3634 4.532 1.6009 6.5948 2.1989 7.5856 2.1989 1.0823 0 2.2715-0.99673 3.2653-2.7368 0.48128-0.8427 0.81198-1.1976 0.89039-0.95558 0.0686 0.21177 0.26316 0.83484 0.43236 1.3846 0.22291 0.72427 0.8296 1.4451 2.2029 2.6174 1.8978 1.62 3.8797 3.7742 3.8797 4.2171 0 0.92534-3.2176 2.5506-5.7634 2.9111-2.537 0.35928-2.9525 0.49642-2.7896 0.92082 0.27795 0.72432-0.33284 0.32892-2.2949-1.4856z" fill="#576675"/><path d="m104.42 158.04c-0.097-0.097-0.17639-8.0526-0.17639-17.679 0-18.812-0.01-18.663 1.3843-21.435 0.60696-1.207 1.6772-2.2808 27.43-27.521 11.638-11.407 19.029-18.843 19.248-19.368 0.19572-0.46827 0.35585-1.6842 0.35585-2.7021 0-4.7204 3.3531-8.4196 8.4448-9.3165 4.4725-0.78781 9.395 1.8452 11.339 6.0654 0.58461 1.2689 0.69897 1.8969 0.70906 3.8942 0.0108 2.1397-0.0732 2.5611-0.82783 4.1541-1.9047 4.0208-5.7073 6.2969-10.52 6.2969-1.856 0-1.856 0-8.6095 6.6917-3.7144 3.6804-12.474 12.342-19.466 19.248-7.6536 7.5601-12.988 13.035-13.406 13.757-0.38158 0.6604-0.96852 1.9701-1.3043 2.9104-0.58935 1.6503-0.61578 2.091-0.76118 12.69l-0.15064 10.98-0.0497-10.319c-0.0559-11.61 0.0542-12.65 1.6635-15.713 0.83741-1.5936 2.2376-3.0882 11.338-12.103 15.216-15.072 27.746-27.412 28.409-27.978 0.44874-0.38288 1.0783-0.50983 2.773-0.55919 1.2058-0.03512 2.8718-0.27881 3.7022-0.54153 2.7822-0.88024 5.5353-3.5741 6.4808-6.3415 0.56958-1.667 0.55921-4.8735-0.0208-6.4445-0.98936-2.6795-3.5771-5.0887-6.4514-6.0063-2.1577-0.68886-5.8336-0.4468-7.7361 0.50942-1.8508 0.93026-3.5598 2.5776-4.4281 4.2684-0.54195 1.0553-0.71471 1.8707-0.854 4.0306-0.16002 2.4813-0.23961 2.7855-0.95199 3.639-0.42755 0.51222-7.2663 7.2801-15.197 15.04-25.085 24.544-30.573 30.074-31.158 31.398-1.0701 2.4235-1.1212 3.3881-1.1212 21.158 0 13.483 0.0709 17.191 0.33072 17.296 0.18464 0.0745 0.20412 0.14268 0.0441 0.15434-0.15765 0.0115-0.36601-0.0585-0.46302-0.1555zm1.4332-0.44923c0.0606-0.0531 0.4079-0.23821 0.7717-0.41147 0.6237-0.29703 0.63214-0.29152 0.14787 0.0965-0.42148 0.33768-1.2827 0.6327-0.91957 0.31502zm-9.6949-1.1088c-0.49319-0.39512-0.48994-0.40001 0.08172-0.12298 0.32742 0.15867 0.59531 0.34383 0.59531 0.41147 0 0.20247-0.13722 0.144-0.67704-0.28849zm2.9936-17.331c-0.15712-18.872-0.13816-19.21 1.2311-21.883 1.0096-1.9717 1.8508-2.9228 6.5066-7.3564 4.3656-4.1573 4.3656-4.1573-0.33083 0.52986-4.8172 4.8076-5.6294 5.8558-6.6096 8.5296-0.56031 1.5284-0.565 1.7161-0.48912 19.601 0.04214 9.9318 0.0228 18.058-0.04297 18.058s-0.18507-7.8653-0.26511-17.478zm8.796 17.393c0-0.0658 0.80367-0.61177 1.7859-1.2132 0.98226-0.60147 1.4442-0.80724 1.0265-0.45727-0.81328 0.68144-2.8125 1.8689-2.8125 1.6705zm-13.112-0.85483c-0.49319-0.39512-0.48994-0.40001 0.08172-0.12298 0.32742 0.15867 0.59531 0.34383 0.59531 0.41147 0 0.20247-0.13722 0.144-0.67703-0.28849zm-2.92-2.0359c-0.50403-0.59531-0.50403-0.59531 0.09128-0.0913 0.32742 0.27721 0.59531 0.5451 0.59531 0.59531 0 0.21173-0.21294 0.0554-0.6866-0.50403zm22.331-1.6535c1.0632-0.98481 2.2824-2.3998 2.7095-3.1443 0.81934-1.4285 1.0799-1.5078 0.35624-0.1084-0.53035 1.0256-2.525 3.1749-3.9338 4.2389-0.58576 0.44239-0.19515-1e-3 0.86802-0.9862zm-24.86-0.46319c-3.0845-2.9729-2.9774-2.4409-3.1557-15.677-0.12787-9.4919-0.22615-11.63-0.59311-12.903-0.58734-2.0374-1.5692-3.9579-3.0077-5.8825-1.1865-1.5875-1.1865-1.5875-0.02943-0.36748 1.3757 1.4505 2.6688 3.7844 3.2941 5.9453 0.38465 1.3292 0.47589 3.3058 0.60357 13.075 0.17493 13.386 0.063 12.828 3.1725 15.809 0.94874 0.90951 1.6589 1.6536 1.5782 1.6536-0.08073 0-0.91884-0.74414-1.8625-1.6536zm26.127-50.109c2.051-2.017 8.0622-7.8939 13.358-13.06 5.2961-5.166 11.714-11.457 14.263-13.979l4.6333-4.5863-4.8948 0.1371c-8.52 0.23863-11.292 1.3307-17.185 6.7701-4.2976 3.9668-16.659 15.679-22.825 21.627-2.4407 2.3543-4.8251 4.5369-5.2987 4.8501-0.75823 0.50149-0.73214 0.44843 0.21837-0.44415 0.59371-0.55752 4.4037-4.1763 8.4667-8.0416 12.776-12.155 18.967-17.991 20.881-19.682 4.5855-4.0538 7.7622-5.1198 15.975-5.361 4.5718-0.13425 5.1022-0.10634 4.8948 0.25756-0.12792 0.22447-3.5663 3.6557-7.6409 7.6249-4.0746 3.9692-9.7899 9.5472-12.701 12.396-12.292 12.028-15.102 14.741-15.477 14.944-0.21828 0.11812 1.2812-1.4355 3.3321-3.4524zm38.999-31.983c-0.62872-1.9051 0.47495-4.9144 2.4097-6.5705 2.9285-2.5067 7.8261-2.5326 10.755-0.0569 0.47294 0.39975 0.85989 0.9411 0.85989 1.203 0 0.57087-2.7659 2.0595-6.8792 3.7024-1.528 0.6103-3.1353 1.2754-3.5719 1.4781-0.724 0.33606-3.0004 1.1755-3.1878 1.1755-0.0432 0-0.21685-0.41919-0.38594-0.93153zm4.3674-5.1847c1.0186-0.42091 2.4972-1.1358 3.2856-1.5886 1.2419-0.71325 1.3699-0.85888 0.9578-1.0895-0.6331-0.35431-3.1284-0.04523-4.4871 0.5558-1.159 0.51268-2.799 2.1777-2.799 2.8417 0 0.47838 0.3368 0.39876 3.0427-0.71935z" fill="#5da1de"/><path d="m99.071 137.72c1.25e-4 -4.2201 0.03666-5.9095 0.08118-3.7541 0.04452 2.1553 0.04442 5.6081-2.29e-4 7.6729-0.04465 2.0648-0.08108 0.30132-0.08095-3.9188zm-12.513-2.9104c-0.03548-7.2042-0.14563-10.249-0.41709-11.53-0.53889-2.5421-1.8245-5.1818-3.1308-6.4286-0.61673-0.58859-0.92237-0.91941-0.6792-0.73514 0.36869 0.27939 0.67629 0.21659 1.8521-0.3781 0.77548-0.39222 2.0648-1.1574 2.8652-1.7003 1.6123-1.0937 6.8792-6.4234 6.8792-6.9612 0-0.1877 0.41672-0.74517 0.92604-1.2388 0.50932-0.49365 0.92604-0.79391 0.92604-0.66724 0 0.12668 0.29239-0.0444 0.64975-0.38009 0.35736-0.33573 0.62525-0.69625 0.59531-0.80117-0.04702-0.16476 1.771-1.8744 3.3645-3.164 0.82284-0.66588 0.24861 0.18188-1.0654 1.5729-5.4133 5.7305-6.0472 6.5185-5.7879 7.1942 0.2564 0.66816 1.6798 1.0843 2.9934 0.87523 0.67911-0.10811 1.8017-0.18294 2.4947-0.1663 1.312 0.0315 5.5301-1.0593 6.2587-1.6185 0.79959-0.61372 7.2917-6.4361 11.138-9.9888 2.1268-1.9645 5.5262-5.0584 7.5542-6.8753 2.028-1.8169 4.9375-4.4588 6.4654-5.8708 3.2198-2.9756 4.2888-3.8459 4.0912-3.3309-0.0767 0.19986-2.5466 2.6732-5.4888 5.4964-2.9421 2.8232-5.0607 4.8109-4.7079 4.4173 2.098-2.3411-1.8247 0.97255-7.1245 6.0185-1.3829 1.3166-5.1929 4.8557-8.4667 7.8646-6.9646 6.4011-9.3027 8.7584-11.844 11.941-3.5617 4.4607-5.9422 8.9506-8.0925 15.264-1.5846 4.6525-1.7777 5.4669-2.0076 8.4667-0.12961 1.691-0.20843-0.69002-0.24086-7.276zm18.009-2.3021c-0.0597-9.4773 0.0568-10.764 1.176-12.986 0.86967-1.7266 2.4966-3.3952 17.421-17.867 7.1305-6.9144 14.751-14.31 16.933-16.435 2.1828-2.1249 5.6738-5.4691 7.7577-7.4314 3.7296-3.512 5.3392-5.4388 5.3392-6.3914 0-0.75804 0.36183-0.57108 0.92747 0.47924 0.28525 0.52968 0.9374 1.2377 1.4492 1.5734 0.93059 0.61034 0.93059 0.61034 3.3118-0.01327 3.0269-0.79271 5.0596-1.5972 8.8635-3.5082 3.0427-1.5285 3.0427-1.5285 3.1232-2.6354 0.10595-1.4569-0.59769-2.8039-2.2931-4.3897-1.5549-1.4544-1.4386-1.5932 0.34503-0.41178 2.5134 1.6648 3.8519 4.2828 3.8519 7.5338 0 3.3206-1.2097 5.7817-3.8669 7.8673-1.8634 1.4625-3.648 2.0167-6.4941 2.0167-2.0498 0-2.3244 0.06317-3.1628 0.7276-0.50492 0.40018-9.4011 9.1727-19.769 19.495-18.507 18.424-18.871 18.806-19.905 20.902-1.2662 2.5652-1.5501 4.1432-1.6215 9.0143-0.0543 3.7042-0.0543 3.7042-0.19997 0.66146-0.14547-3.0388-0.31167-3.0717-0.66957-0.1323-0.27709 2.2758-0.56038 2.7002-2.2167 3.3212-1.0129 0.37975-1.8044 0.51013-2.4624 0.40562-0.69054-0.10968-1.6776 0.0773-3.4282 0.64938-1.3522 0.44187-2.8467 0.818-3.3212 0.83584-0.8627 0.0324-0.8627 0.0324-0.94732 2.8342-0.0465 1.541-0.10991-1.2108-0.14081-6.1149zm17.766-16.344c3.7362-3.3 12.869-12.119 12.869-12.427 0-0.0831-0.74414-0.1617-1.6536-0.17458-0.90951-0.0129-2.3085-0.0706-3.1089-0.12828-1.1562-0.0833-1.6999 0.0239-2.6458 0.52195-0.65485 0.34476-1.8455 0.71684-2.6458 0.82685-1.776 0.24411-5.3548 1.4753-6.6146 2.2756-1.0994 0.69842-7.6729 7.112-7.6729 7.4863 0 0.14265-0.35719 0.47035-0.79375 0.72824-0.81388 0.48076-1.0346 0.88395-0.48386 0.88395 0.17044 0 0.50694 0.17833 0.74778 0.39628 0.75996 0.68776 6.7489 1.7992 8.4012 1.5591 1.0438-0.15167 1.1245-0.11981 1.1245 0.44391 0 0.51883 0.12527 0.43751 0.85989-0.55827 0.47295-0.64107 1.2005-1.4664 1.6167-1.834zm-19.542-2.6528c0.26339-0.29104 0.53842-0.52917 0.61118-0.52917 0.0728 0-0.0832 0.23813-0.34659 0.52917s-0.53842 0.52917-0.61118 0.52917c-0.0728 0 0.0832-0.23813 0.34659-0.52917zm5.6775-5.3578c0.64876-0.69123 1.2143-1.2568 1.2568-1.2568 0.19867 0-0.0114 0.23755-1.1796 1.334-1.2568 1.1796-1.2568 1.1796-0.0772-0.0772zm12.314-12.105c1.4498-1.4552 2.6954-2.6458 2.7682-2.6458 0.0728 0-1.0539 1.1906-2.5036 2.6458-1.4497 1.4552-2.6954 2.6458-2.7682 2.6458-0.0728 0 1.0539-1.1906 2.5036-2.6458zm33.619-31.034c0.0994-0.26094 0.24731-0.40778 0.32877-0.32632 0.0815 0.08146 1.7e-4 0.29496-0.18065 0.47443-0.26131 0.25936-0.2917 0.22897-0.14812-0.14811z" fill="#0369ce"/><path d="m104.51 151.01c4.8e-4 -3.8199 0.0779-8.8019 0.172-11.071 0.17113-4.1258 0.17113-4.1258 1.0026-4.1571 0.45733-0.0172 1.9378-0.39279 3.29-0.83466 1.7507-0.5721 2.7377-0.75906 3.4282-0.64938 1.3309 0.21138 3.8282-0.73063 4.2207-1.5921 0.15935-0.34975 0.3732-1.3898 0.47521-2.3113 0.10201-0.9215 0.26811-1.9044 0.36912-2.1843 0.25411-0.70405 0.5461 7.3684 0.4817 13.317-0.0293 2.7053-0.0938 3.996-0.14342 2.8682-0.10401-2.3651-0.20763-2.4307-2.3611-1.4948-0.73812 0.32077-2.0058 0.59108-2.9985 0.63939-0.94589 0.046-2.8211 0.16772-4.1672 0.27041-1.7527 0.13372-2.5556 0.0969-2.8286-0.12965-0.60907-0.50548-0.71154 0.78489-0.62409 7.8586 0.0436 3.529-0.01 6.4163-0.11911 6.4162-0.10914-1.2e-4 -0.19804-3.1256-0.19755-6.9455zm-5.5571 0.8987c0-3.0346-0.07376-6.2232-0.16392-7.0857-0.16392-1.5683-0.16392-1.5683-2.3151-1.3886-1.1832 0.0988-3.5208 0.26117-5.1949 0.36085-1.8556 0.11048-3.2328 0.31951-3.5281 0.53548-0.71658 0.52398-0.86266 2.2759-0.31444 3.771 0.34301 0.93545 1.0755 1.8552 2.8794 3.6155 2.065 2.0152 2.1481 2.1256 0.56727 0.7544-2.5224-2.1879-2.9232-2.651-3.6157-4.1769-0.52937-1.1665-0.59219-1.6879-0.54152-4.4946 0.06519-3.6114 0.38153-5.1564 2.0856-10.186 2.1307-6.2894 4.5174-10.795 8.086-15.264 2.5415-3.1829 4.8796-5.5402 11.844-11.941 3.2738-3.0089 7.0838-6.548 8.4667-7.8646 2.623-2.4973 6.8944-6.3301 7.806-7.0043 1.577-1.1664-7.2737 7.6925-19.19 19.207-4.0292 3.8936-5.1484 5.3078-6.1396 7.7577-0.6 1.4831-0.6 1.4831-0.54568 20.202 0.02988 10.296 1.1e-4 18.719-0.06615 18.719-0.06625 0-0.12046-2.4828-0.12046-5.5174zm-2.7937 4.3122c-0.49319-0.39513-0.48994-0.40001 0.08172-0.12298 0.32742 0.15867 0.59531 0.34383 0.59531 0.41147 0 0.20246-0.13722 0.144-0.67704-0.28849zm11.26 0.2978c0-0.0728 0.23813-0.25973 0.52917-0.41549 0.29104-0.15577 0.52917-0.22367 0.52917-0.15091 0 0.0728-0.23813 0.25973-0.52917 0.41549s-0.52917 0.22367-0.52917 0.15091zm-12.583-1.0916c-0.49319-0.39513-0.48994-0.40001 0.08172-0.12298 0.32742 0.15867 0.59531 0.34383 0.59531 0.41147 0 0.20246-0.13722 0.144-0.67703-0.28849zm13.906 0.33361c0-0.06 0.83344-0.66328 1.8521-1.3406 1.0186-0.67735 1.8521-1.1755 1.8521-1.107 0 0.0685-0.68461 0.5845-1.5214 1.1467-1.853 1.2449-2.1828 1.4415-2.1828 1.301zm5.3177-3.9345c1.7997-1.7152 2.7526-2.976 3.2845-4.3461 0.32283-0.83144 0.37228-0.87863 0.25209-0.24058-0.2273 1.2067-1.8504 3.4073-3.521 4.7739l-1.4968 1.2244zm5.7948-33.276c0-0.56372-0.0807-0.59558-1.1245-0.44391-1.6522 0.2401-7.6412-0.87136-8.4012-1.5591-0.24084-0.21795-0.57734-0.39628-0.74778-0.39628-0.55071 0-0.33002-0.40319 0.48386-0.88395 0.43656-0.25789 0.79375-0.58559 0.79375-0.72824 0-0.37427 6.5735-6.7879 7.6729-7.4863 1.2598-0.80026 4.8386-2.0315 6.6146-2.2756 0.80036-0.11001 1.991-0.48209 2.6458-0.82685 0.94597-0.49802 1.4896-0.60527 2.6458-0.52195 0.80037 0.0577 2.1994 0.1154 3.1089 0.12828 0.9095 0.0129 1.6536 0.0914 1.6536 0.17458 0 0.3078-9.133 9.127-12.869 12.427-0.41625 0.36765-1.1438 1.193-1.6167 1.834-0.73462 0.99578-0.85989 1.0771-0.85989 0.55827zm-37.576-2.538c-0.40314-0.48575-0.46873-0.42897 1.3282-1.1498 2.1162-0.84892 4.3654-2.4657 7.5282-5.4116 1.5348-1.4295 2.7905-2.4729 2.7905-2.3188 0 0.49106-5.3668 5.8742-6.8792 6.9002-1.2842 0.87113-4.028 2.3833-4.3244 2.3833-0.05978 0-0.2593-0.18147-0.44337-0.40327zm1.5096-0.52625c0.52699-0.22019 0.89864-0.45988 0.82588-0.53264-0.14688-0.14688-2.0656 0.60018-2.0656 0.80425 0 0.20351 0.21574 0.15625 1.2397-0.27161zm11.989-10.36c0-0.33796 1.0156-1.2764 1.1912-1.1008 0.07129 0.0713-0.16756 0.40881-0.53079 0.75005-0.36323 0.34123-0.66042 0.49906-0.66042 0.35073z" fill="#024fb6"/><path d="m95.784 155.82c-3.9576-2.4475-7.2768-5.4398-8.1502-7.3475-0.76214-1.6647-0.7123-3.5326 0.11029-4.1341 0.30538-0.2233 1.651-0.42941 3.5366-0.54167 1.674-0.0997 4.0174-0.26256 5.2075-0.36196 2.1638-0.18073 2.1638-0.18073 2.3309 1.9451 0.09192 1.1692 0.13024 4.4193 0.08515 7.2225l-0.08198 5.0966zm8.995-4.6762c4e-3 -7.0131 0.0903-7.9455 0.69013-7.4477 0.25318 0.21012 1.112 0.24549 2.812 0.1158 1.3461-0.10269 3.2213-0.22438 4.1672-0.27041 0.99273-0.0483 2.2604-0.31862 2.9985-0.63939 2.2734-0.98799 2.3606-0.9199 2.252 1.7594-0.11817 2.9154-0.75734 4.309-2.9788 6.495-2.0228 1.9905-8.8406 6.5358-9.8035 6.5358-0.0776 0-0.13947-2.9468-0.13748-6.5484zm-22.229-35.384c0-0.20407 1.9187-0.95113 2.0656-0.80425 0.07276 0.0728-0.29888 0.31245-0.82588 0.53264-1.024 0.42786-1.2397 0.47512-1.2397 0.27161z" fill="#0234aa"/></g></g></svg>