<svg width="130" height="27" viewBox="0 0 130 27" fill="none" xmlns="http://www.w3.org/2000/svg">
<path d="M49.2713 21.3971C49.1009 20.5657 48.4139 20.1462 47.5749 20.1462C46.1328 20.1462 45.5219 21.298 45.5219 22.5235C45.5219 23.8634 46.1328 24.9821 47.5828 24.9821C48.642 24.9821 49.2529 24.2575 49.329 23.2888H50.1339C49.9818 24.7533 49.0406 25.6406 47.512 25.6406C45.6294 25.6406 44.7144 24.2905 44.7144 22.5819C44.7144 20.8785 45.7159 19.4902 47.5801 19.4902C48.8439 19.4902 49.8875 20.1487 50.0736 21.3971H49.2713Z" fill="#0C2E82"/>
<path d="M53.8676 19.4878C55.7921 19.4878 56.7675 20.9675 56.7675 22.5642C56.7675 24.161 55.7921 25.6407 53.8676 25.6407C51.9431 25.6407 50.9678 24.161 50.9678 22.5642C50.9678 20.9701 51.9431 19.4878 53.8676 19.4878ZM53.8676 24.9822C55.3438 24.9822 55.9626 23.7491 55.9626 22.5642C55.9626 21.3794 55.3438 20.1463 53.8676 20.1463C52.3915 20.1463 51.7727 21.3794 51.7727 22.5642C51.7727 23.7491 52.3941 24.9822 53.8676 24.9822Z" fill="#0C2E82"/>
<path d="M57.8999 19.6274H59.0011L60.9099 24.5625L62.8265 19.6274H63.9304V25.5007H63.1674V20.6165H63.1517L61.2612 25.5007H60.5743L58.6839 20.6165H58.6681V25.5007H57.9051V19.6274H57.8999Z" fill="#0C2E82"/>
<path d="M65.6372 19.6274H68.2906C69.4941 19.6274 70.147 20.2783 70.147 21.364C70.147 22.4496 69.4941 23.1082 68.2906 23.1005H66.4421V25.5032H65.6372V19.6274ZM66.4448 22.442H68.0232C68.9304 22.4496 69.3473 22.0632 69.3473 21.364C69.3473 20.6648 68.9304 20.286 68.0232 20.286H66.4448V22.442Z" fill="#0C2E82"/>
<path d="M72.3601 19.6274H73.2516L75.6192 25.5007H74.7277L74.067 23.7336H71.5054L70.8263 25.5007H69.9951L72.3601 19.6274ZM71.7571 23.0751H73.81L72.8006 20.3368H72.7849L71.7571 23.0751Z" fill="#0C2E82"/>
<path d="M76.4639 19.6274H77.3212L80.5095 24.3896H80.5252V19.6274H81.2882V25.5007H80.4073L77.2426 20.7894H77.2268V25.5007H76.4639V19.6274Z" fill="#0C2E82"/>
<path d="M85.2025 23.1007V25.5034H84.3975V23.1007L82.0562 19.6301H83.0132L84.8275 22.4269L86.6 19.6301H87.515L85.2025 23.1007Z" fill="#0C2E82"/>
<path d="M45.0049 2.01562H47.3882V15.224H45.0049V2.01562Z" fill="#0C2E82"/>
<path d="M49.9048 5.65914H51.9656V7.06515L52.005 7.10329C52.6526 6.04815 53.78 5.40234 55.0753 5.40234C57.2121 5.40234 58.5651 6.51343 58.5651 8.65932V15.2267H56.3915V9.21359C56.3521 7.71604 55.7438 7.0677 54.4643 7.0677C53.0144 7.0677 52.081 8.17878 52.081 9.58225V15.2241H49.9074V5.65914H49.9048Z" fill="#0C2E82"/>
<path d="M62.4928 12.1526C62.6082 13.373 63.5599 13.8179 64.7241 13.8179C65.5447 13.8179 66.9737 13.6527 66.9186 12.5594C66.861 11.4483 65.2773 11.3212 63.6937 10.9678C62.0916 10.6347 60.5263 10.0804 60.5263 8.13795C60.5263 6.048 62.8546 5.39966 64.648 5.39966C66.6696 5.39966 68.5023 6.21327 68.7671 8.34136H66.4965C66.3051 7.34215 65.4477 7.06501 64.4933 7.06501C63.8641 7.06501 62.6999 7.21248 62.6999 8.04642C62.6999 9.08123 64.3019 9.23124 65.904 9.58211C67.4876 9.93297 69.0896 10.4872 69.0896 12.3763C69.0896 14.6519 66.7246 15.4833 64.6821 15.4833C62.2018 15.4833 60.3507 14.4104 60.314 12.1526H62.4928V12.1526Z" fill="#0C2E82"/>
<path d="M79.4129 15.2241H77.276V13.8919H77.2367C76.7018 14.8529 75.5193 15.4835 74.4312 15.4835C71.8565 15.4835 70.75 14.2249 70.75 11.7282V5.65918H72.9236V11.5222C72.9236 13.2054 73.6289 13.8156 74.8114 13.8156C76.6231 13.8156 77.2341 12.6867 77.2341 11.207V5.65918H79.4077V15.2241H79.4129Z" fill="#0C2E82"/>
<path d="M81.7017 5.65914H83.7415V7.5101H83.7808C84.0299 6.49309 85.3252 5.40234 86.6623 5.40234C87.1579 5.40234 87.2916 5.44048 87.483 5.45828V7.4923C87.1788 7.45416 86.8537 7.40077 86.5496 7.40077C85.0603 7.40077 83.8778 8.56524 83.8778 10.6755V15.2267H81.7043V5.65914H81.7017Z" fill="#0C2E82"/>
<path d="M96.8721 13.0959C96.8721 13.6146 96.9875 13.818 97.386 13.818C97.5197 13.818 97.6928 13.818 97.9209 13.7799V15.2418C97.5958 15.3537 96.9088 15.4833 96.547 15.4833C95.6686 15.4833 95.0394 15.1884 94.869 14.3189C94.0116 15.1325 92.6193 15.4833 91.4552 15.4833C89.6801 15.4833 88.0781 14.5579 88.0781 12.6891C88.0781 10.3017 90.042 9.91522 91.8747 9.71182C93.44 9.43468 94.8323 9.59995 94.8323 8.36174C94.8323 7.271 93.6681 7.06759 92.7924 7.06759C91.5705 7.06759 90.7132 7.54813 90.6188 8.58548H88.4452C88.5973 6.12432 90.7525 5.40479 92.9287 5.40479C94.8558 5.40479 96.8774 6.16246 96.8774 8.17868V13.0959H96.8721ZM94.6985 10.4314C94.0299 10.856 92.9812 10.8382 92.0268 11.006C91.0934 11.1534 90.2517 11.4865 90.2517 12.5976C90.2517 13.5409 91.4919 13.818 92.2549 13.818C93.2093 13.818 94.6959 13.3375 94.6959 12.0052V10.4314H94.6985Z" fill="#0C2E82"/>
<path d="M99.4805 5.65914H101.541V7.06515L101.581 7.10329C102.228 6.04815 103.356 5.40234 104.651 5.40234C106.788 5.40234 108.141 6.51343 108.141 8.65932V15.2267H105.967V9.21359C105.928 7.71604 105.32 7.0677 104.04 7.0677C102.59 7.0677 101.657 8.17878 101.657 9.58225V15.2241H99.4831V5.65914H99.4805Z" fill="#0C2E82"/>
<path d="M116.89 8.86013C116.72 7.69566 115.842 7.06511 114.641 7.06511C113.516 7.06511 111.932 7.63972 111.932 10.5433C111.932 12.1349 112.656 13.8181 114.546 13.8181C115.805 13.8181 116.683 13.0044 116.893 11.634H119.067C118.666 14.113 117.082 15.4809 114.546 15.4809C111.455 15.4809 109.759 13.3528 109.759 10.5407C109.759 7.65498 111.379 5.39722 114.622 5.39722C116.911 5.39722 118.857 6.5083 119.067 8.85759H116.89V8.86013Z" fill="#0C2E82"/>
<path d="M122.536 10.9883C122.536 12.4858 123.375 13.8181 125.187 13.8181C126.445 13.8181 127.208 13.2816 127.591 12.2265H129.652C129.175 14.3164 127.345 15.4834 125.187 15.4834C122.096 15.4834 120.36 13.3935 120.36 10.4518C120.36 7.73384 122.19 5.40234 125.129 5.40234C128.239 5.40234 130.145 8.12284 129.783 10.9883H122.536V10.9883ZM127.612 9.60005C127.536 8.26777 126.6 7.06515 125.132 7.06515C123.624 7.06515 122.594 8.17624 122.539 9.60005H127.612Z" fill="#0C2E82"/>
<path d="M19.5597 0.479736C8.75729 0.479736 0 6.30974 0 13.5C0 20.6903 8.75729 26.5203 19.5597 26.5203C30.3621 26.5203 39.1194 20.6903 39.1194 13.5C39.1194 6.30974 30.3621 0.479736 19.5597 0.479736Z" fill="white"/>
<path d="M19.5596 1.10767C9.17412 1.10767 0.752441 6.65545 0.752441 13.4999C0.752441 20.3444 9.17412 25.8947 19.5596 25.8947C29.9451 25.8947 38.3668 20.3444 38.3668 13.4999C38.3668 6.65545 29.9451 1.10767 19.5596 1.10767Z" fill="#002F87"/>
<path d="M19.5598 3.62744C10.7239 3.62744 3.55811 8.04634 3.55811 13.5001C3.55811 18.9538 10.7239 23.3727 19.5598 23.3727C28.3984 23.3727 35.5615 18.9538 35.5615 13.5001C35.5615 8.04634 28.3958 3.62744 19.5598 3.62744Z" fill="white"/>
<path d="M33.2333 14.0872C33.2333 13.716 33.5453 13.4135 33.9307 13.4135C34.3135 13.4135 34.6255 13.716 34.6255 14.0872C34.6255 14.4585 34.3135 14.761 33.9307 14.761C33.5453 14.761 33.2333 14.4585 33.2333 14.0872ZM33.0078 14.0872C33.0078 14.5805 33.4221 14.9822 33.9307 14.9822C34.4394 14.9822 34.8537 14.5805 34.8537 14.0872C34.8537 13.594 34.4394 13.1948 33.9307 13.1948C33.4221 13.1948 33.0078 13.594 33.0078 14.0872Z" fill="#002F87"/>
<path d="M33.7909 13.7695V14.0416H33.8355C33.8827 14.0416 34.0243 14.0416 34.0243 13.9068C34.0243 13.7695 33.8827 13.7695 33.8355 13.7695H33.7909ZM33.9299 13.6221C34.1239 13.6221 34.2367 13.7187 34.2367 13.8916C34.2367 14.0212 34.1606 14.1179 34.0479 14.1382L34.0164 14.1433C34.0164 14.1433 34.2681 14.4687 34.3075 14.5221H34.0558C34.0453 14.5043 33.7909 14.1128 33.7909 14.1128V14.5221H33.5864V13.6221H33.9299V13.6221Z" fill="#002F87"/>
<path d="M17.455 14.8095L19.5106 8.57782H19.5552L21.5427 14.8095H17.455ZM26.0524 17.9394H23.066L24.6077 13.7824L21.3775 4.48945C20.7797 4.44622 20.1714 4.42334 19.5578 4.42334C18.9496 4.42334 18.3465 4.44368 17.7513 4.4869L14.6653 13.2332H15.1582L15.1241 13.612C14.9852 15.1935 14.3087 16.452 13.2547 17.23L11.8179 21.3006C12.8168 21.6616 13.8761 21.9464 14.9799 22.1574L16.5426 17.5961H22.4446L23.8683 22.2057C25.0429 21.9973 26.1651 21.7023 27.2244 21.326L26.0524 17.9394Z" fill="#E1251B"/>
<path d="M27.436 13.4491C27.512 13.2304 28.4769 10.454 28.6132 10.0573C28.7469 10.454 29.6777 13.2329 29.7512 13.4491H27.436ZM29.8298 7.1792H27.4386L23.5791 17.5883H26.0149C26.0149 17.5883 26.7543 15.4373 26.7988 15.3127H30.3909C30.4329 15.4373 31.146 17.5883 31.146 17.5883H33.6369L29.8298 7.1792Z" fill="#E1251B"/>
<path d="M12.5776 10.7338C12.4386 9.71681 11.4947 8.94388 10.4145 8.94388C8.45851 8.94388 7.72437 10.6626 7.72437 12.45C7.72437 14.1535 8.45851 15.8697 10.4145 15.8697C11.7464 15.8697 12.4937 14.9264 12.6615 13.5789H14.7695C14.5493 16.1265 12.8424 17.7588 10.4171 17.7588C7.35205 17.7588 5.55078 15.3968 5.55078 12.4475C5.55078 9.41425 7.35205 7.05225 10.4171 7.05225C12.5933 7.05225 14.4261 8.36927 14.6883 10.7313H12.5776V10.7338Z" fill="#E1251B"/>
</svg>
